<svg width="180" height="160" viewBox="0 0 180 160" fill="none" xmlns="http://www.w3.org/2000/svg">
<path d="M89.9509 136.715L57.34 127.661L50.0726 46.1511H129.927L122.652 127.649L89.9509 136.715Z" fill="#264DE4"/>
<path d="M116.424 122.459L122.641 52.8157H90V129.785L116.424 122.459Z" fill="#2965F1"/>
<path d="M66.733 83.0468L67.6288 93.0437H90V83.0468H66.733ZM64.9325 62.8129L65.8412 72.8098H90V62.8129H64.9325ZM90 109.01L89.9562 109.021L78.8227 106.015L78.1109 98.0423H68.0755L69.4759 113.739L89.954 119.423L90 119.411V109.01Z" fill="#EBEBEB"/>
<path d="M68.8662 24H80.9738V29.0634H73.9296V34.1268H80.9744V39.1899H68.8662V24ZM83.3956 24H95.5035V28.4029H88.459V29.2835H95.5035V39.4103H83.3959V34.7866H90.4404V33.9061H83.3953L83.3956 24ZM97.9253 24H110.033V28.4029H102.989V29.2835H110.033V39.4103H97.9253V34.7866H104.97V33.9061H97.9257L97.9253 24Z" fill="black"/>
<path d="M113.203 83.0468L115.008 62.8129H89.9656V72.8098H104.052L103.142 83.0468H89.9656V93.0437H102.276L101.115 106.009L89.9653 109.018V119.419L110.46 113.739L110.61 112.05L112.959 85.7312L113.203 83.0468Z" fill="white"/>
</svg>
