<svg width="180" height="160" viewBox="0 0 180 160" fill="none" xmlns="http://www.w3.org/2000/svg">
<g clip-path="url(#clip0_42_151)">
<path d="M101.798 72.5733C99.155 72.5733 97.1867 73.871 97.1867 76.9943C97.1867 79.3474 98.4839 80.9812 101.655 80.9812C104.344 80.9812 106.17 79.3969 106.17 76.8965C106.17 74.0632 104.536 72.5733 101.798 72.5733ZM96.5138 94.6266C95.8881 95.3939 95.2648 96.2099 95.2648 97.1719C95.2648 99.0924 97.7138 99.6704 101.078 99.6704C103.864 99.6704 107.66 99.4749 107.66 96.8843C107.66 95.3444 105.834 95.2494 103.526 95.1049L96.5138 94.6266ZM110.734 72.7183C111.597 73.8233 112.511 75.3613 112.511 77.5709C112.511 82.9032 108.332 86.0255 102.28 86.0255C100.741 86.0255 99.3476 85.8338 98.4839 85.5939L96.8977 88.1392L101.605 88.4272C109.917 88.9571 114.816 89.1979 114.816 95.5847C114.816 101.111 109.965 104.232 101.605 104.232C92.9103 104.232 89.5953 102.022 89.5953 98.2268C89.5953 96.065 90.5563 94.9142 92.2379 93.3261C90.6521 92.656 90.1242 91.4556 90.1242 90.1575C90.1242 89.0997 90.6521 88.1397 91.5182 87.2259C92.3824 86.3145 93.3429 85.4008 94.496 84.3439C92.1425 83.1908 90.3641 80.6927 90.3641 77.1369C90.3641 71.6133 94.0158 67.8195 101.365 67.8195C103.431 67.8195 104.68 68.0093 105.785 68.2997H115.154V72.3816L110.734 72.7183ZM123.606 63.9883C120.867 63.9883 119.282 62.4017 119.282 59.6623C119.282 56.9267 120.867 55.4359 123.606 55.4359C126.392 55.4359 127.978 56.9267 127.978 59.6623C127.978 62.4017 126.393 63.9883 123.606 63.9883ZM117.408 92.8586V89.0652L119.859 88.7299C120.532 88.6331 120.627 88.4896 120.627 87.7676V73.6434C120.627 73.1164 120.483 72.7783 120.001 72.6357L117.408 71.7219L117.936 67.8317H127.881V87.7676C127.881 88.5373 127.927 88.6331 128.65 88.7304L131.1 89.0657V92.8586H117.408ZM150.098 90.9961C148.032 92.0043 145.005 92.9171 142.266 92.9171C136.549 92.9171 134.388 90.6136 134.388 85.1821V72.5969C134.388 72.3089 134.388 72.1167 134.003 72.1167H130.64V67.8398C134.869 67.3581 136.549 65.2444 137.078 60.008H141.642V66.8316C141.642 67.1669 141.642 67.3118 142.027 67.3118H148.8V72.1157H141.642V83.5969C141.642 86.4312 142.316 87.5352 144.909 87.5352C146.255 87.5352 147.647 87.1999 148.8 86.7674L150.098 90.9961Z" fill="#443701"/>
<path d="M78.9165 78.3892L56.9506 56.4248C56.6498 56.1238 56.2926 55.8851 55.8995 55.7223C55.5064 55.5594 55.0851 55.4756 54.6596 55.4756C54.2341 55.4756 53.8128 55.5594 53.4197 55.7223C53.0266 55.8851 52.6694 56.1238 52.3686 56.4248L47.8074 60.9864L53.5936 66.7721C54.2737 66.5411 55.005 66.505 55.7046 66.668C56.4041 66.831 57.0442 67.1865 57.5522 67.6943C58.0627 68.2057 58.4191 68.8503 58.5807 69.5545C58.7424 70.2588 58.7028 70.9943 58.4664 71.6771L64.0419 77.2535C65.3911 76.7889 66.948 77.0897 68.0251 78.1687C68.3833 78.5266 68.6674 78.9515 68.8613 79.4192C69.0552 79.8869 69.1549 80.3883 69.1549 80.8946C69.1549 81.4009 69.0552 81.9023 68.8613 82.37C68.6674 82.8377 68.3833 83.2626 68.0251 83.6205C67.3951 84.2511 66.5659 84.644 65.6789 84.7321C64.7918 84.8202 63.9016 84.5981 63.1598 84.1038C62.418 83.6094 61.8704 82.8732 61.6103 82.0205C61.3502 81.1679 61.3937 80.2514 61.7332 79.4272L56.5331 74.2271L56.5327 87.9121C56.9094 88.0988 57.2537 88.345 57.5522 88.6412C57.9103 88.9992 58.1943 89.4242 58.3881 89.892C58.5819 90.3598 58.6817 90.8612 58.6817 91.3675C58.6817 91.8739 58.5819 92.3753 58.3881 92.8431C58.1943 93.3109 57.9103 93.7359 57.5522 94.0939C56.0458 95.6003 53.6044 95.6003 52.1004 94.0939C51.6511 93.6449 51.3196 93.0918 51.1356 92.4839C50.9515 91.8759 50.9206 91.2319 51.0454 90.609C51.1703 89.9862 51.4471 89.4039 51.8513 88.9139C52.2555 88.4238 52.7745 88.0412 53.3622 87.8001V73.9876C52.8896 73.7942 52.4606 73.508 52.1004 73.1461C50.9595 72.0067 50.6851 70.3326 51.2698 68.9316L45.5662 63.2271L30.5052 78.2872C30.2042 78.5882 29.9655 78.9454 29.8026 79.3387C29.6397 79.7319 29.5559 80.1533 29.5559 80.5789C29.5559 81.0045 29.6397 81.426 29.8026 81.8192C29.9655 82.2124 30.2042 82.5697 30.5052 82.8706L52.4711 104.836C52.7719 105.136 53.1291 105.375 53.5222 105.538C53.9152 105.701 54.3366 105.785 54.7621 105.785C55.1876 105.785 55.6089 105.701 56.002 105.538C56.3951 105.375 56.7522 105.136 57.0531 104.836L78.9165 82.9731C79.5241 82.3651 79.8654 81.5407 79.8654 80.6812C79.8654 79.8216 79.5241 78.9972 78.9165 78.3892Z" fill="#DE4C36"/>
</g>
<defs>
<clipPath id="clip0_42_151">
<rect width="120.889" height="51" fill="white" transform="translate(29.5556 55)"/>
</clipPath>
</defs>
</svg>
