<svg width="180" height="160" viewBox="0 0 180 160" fill="none" xmlns="http://www.w3.org/2000/svg">
<path d="M129.927 46.1511L122.652 127.649L89.9509 136.715L57.34 127.661L50.0726 46.1511H129.927Z" fill="#E44D26"/>
<path d="M90 129.785L116.424 122.459L122.641 52.8157H90V129.785Z" fill="#F16529"/>
<path d="M75.8578 72.8098H90V62.8129H64.9325L65.1716 65.4948L67.6288 93.0436H90V83.0468H76.7715L75.8578 72.8098ZM78.1109 98.0423H68.0755L69.4759 113.739L89.954 119.423L90 119.411V109.01L89.9562 109.021L78.8227 106.015L78.1109 98.0423Z" fill="#EBEBEB"/>
<path d="M57.5023 24H62.5826V29.0193H67.23V24H72.3106V39.1996H67.2303V34.1099H62.5829V39.1996H57.5026L57.5023 24ZM78.9911 29.0406H74.5193V24H88.547V29.0406H84.0723V39.1996H78.992V29.0406H78.9911ZM90.7732 24H96.0704L99.3289 29.3407L102.584 24H107.884V39.1996H102.824V31.6658L99.3289 37.0701H99.2413L95.7439 31.6658V39.1996H90.7732V24ZM110.412 24H115.494V34.1756H122.638V39.1996H110.412L110.412 24Z" fill="black"/>
<path d="M89.9656 93.0437H102.276L101.115 106.009L89.9653 109.018V119.419L110.46 113.739L110.61 112.05L112.959 85.7312L113.203 83.0468H89.9656V93.0437ZM89.9656 72.7854V72.8098H114.113L114.313 70.5629L114.769 65.4948L115.008 62.8129H89.9656V72.7854Z" fill="white"/>
</svg>
