<svg width="180" height="160" viewBox="0 0 180 160" fill="none" xmlns="http://www.w3.org/2000/svg">
<path d="M79.7606 81.325C79.7606 81.325 76.7813 83.0588 81.8838 83.6438C88.0663 84.35 91.2256 84.2488 98.0369 82.9613C98.0369 82.9613 99.8313 84.0832 102.333 85.0557C87.0581 91.5994 67.765 84.6763 79.7606 81.325ZM77.8931 72.7844C77.8931 72.7844 74.5506 75.2588 79.6575 75.7875C86.2619 76.4694 91.4763 76.525 100.504 74.7875C100.504 74.7875 101.749 76.0532 103.711 76.7444C85.2475 82.1444 64.6825 77.1694 77.8931 72.7844Z" fill="#0074BD"/>
<path d="M93.6262 58.2944C97.3919 62.6287 92.6387 66.5256 92.6387 66.5256C92.6387 66.5256 102.194 61.5937 97.8069 55.415C93.7075 49.6556 90.565 46.795 107.579 36.9275C107.579 36.9281 80.8719 43.5962 93.6262 58.2944Z" fill="#EA2D2E"/>
<path d="M113.827 87.6431C113.827 87.6431 116.033 89.4619 111.397 90.8675C102.583 93.5375 74.7056 94.3425 66.9631 90.9744C64.1813 89.7631 69.4 88.0837 71.0419 87.7294C72.7538 87.3587 73.7313 87.4262 73.7313 87.4262C70.6356 85.2469 53.7231 91.7075 65.1419 93.5606C96.28 98.6081 121.903 91.2875 113.827 87.6431ZM81.195 63.9337C81.195 63.9337 67.0163 67.3019 76.1744 68.5262C80.0419 69.0437 87.7481 68.925 94.9313 68.3225C100.8 67.8294 106.689 66.7762 106.689 66.7762C106.689 66.7762 104.622 67.6631 103.124 68.6844C88.7231 72.4725 60.9094 70.7081 68.9175 66.8356C75.6875 63.5612 81.195 63.9337 81.195 63.9337ZM106.631 78.1506C121.269 70.5462 114.5 63.2381 109.776 64.2225C108.621 64.4631 108.103 64.6725 108.103 64.6725C108.103 64.6725 108.533 63.9981 109.353 63.7081C118.698 60.4237 125.884 73.3975 106.338 78.5362C106.338 78.535 106.563 78.3319 106.631 78.1506Z" fill="#0074BD"/>
<path d="M97.8069 20.9918C97.8069 20.9918 105.912 29.1018 90.1175 41.5687C77.4512 51.5724 87.2294 57.2749 90.1131 63.7931C82.7187 57.1224 77.295 51.2493 80.9331 45.7837C86.2756 37.7624 101.076 33.8718 97.8069 20.9918Z" fill="#EA2D2E"/>
<path d="M82.6337 98.7631C96.6812 99.6612 118.259 98.2631 118.769 91.6156C118.769 91.6156 117.788 94.1356 107.159 96.135C95.1675 98.3925 80.375 98.1294 71.6044 96.6812C71.6044 96.6819 73.4012 98.1694 82.6337 98.7631Z" fill="#0074BD"/>
<path d="M72.5215 126.812V114.227H74.8652V126.812C74.8652 127.984 74.6252 128.973 74.145 129.778C73.6649 130.584 73.0016 131.198 72.1553 131.622C71.3171 132.037 70.3527 132.244 69.2622 132.244C68.1717 132.244 67.2033 132.057 66.3569 131.683C65.5106 131.308 64.8473 130.739 64.3672 129.974C63.887 129.209 63.647 128.244 63.647 127.081H66.0029C66.0029 127.829 66.1413 128.444 66.418 128.924C66.6947 129.404 67.0771 129.758 67.5654 129.986C68.0618 130.214 68.6274 130.328 69.2622 130.328C69.8807 130.328 70.4341 130.197 70.9224 129.937C71.4188 129.668 71.8094 129.274 72.0942 128.753C72.3791 128.224 72.5215 127.577 72.5215 126.812ZM86.3032 129.742V122.942C86.3032 122.422 86.1974 121.97 85.9858 121.587C85.7824 121.197 85.4731 120.896 85.0581 120.684C84.6431 120.472 84.1304 120.367 83.52 120.367C82.9504 120.367 82.4499 120.464 82.0186 120.66C81.5954 120.855 81.2617 121.111 81.0176 121.429C80.7816 121.746 80.6636 122.088 80.6636 122.454H78.4053C78.4053 121.982 78.5273 121.514 78.7715 121.05C79.0156 120.586 79.3656 120.167 79.8213 119.793C80.2852 119.41 80.8385 119.109 81.4814 118.89C82.1325 118.662 82.8568 118.548 83.6543 118.548C84.6146 118.548 85.4609 118.711 86.1934 119.036C86.9339 119.362 87.5117 119.854 87.9268 120.513C88.3499 121.164 88.5615 121.982 88.5615 122.967V129.119C88.5615 129.559 88.5981 130.027 88.6714 130.523C88.7528 131.019 88.8708 131.447 89.0254 131.805V132H86.6694C86.5555 131.74 86.466 131.394 86.4009 130.962C86.3358 130.523 86.3032 130.116 86.3032 129.742ZM86.6938 123.992L86.7183 125.579H84.4355C83.7926 125.579 83.2189 125.632 82.7144 125.738C82.2098 125.835 81.7866 125.986 81.4448 126.189C81.103 126.393 80.8426 126.649 80.6636 126.958C80.4845 127.26 80.395 127.614 80.395 128.021C80.395 128.436 80.4886 128.814 80.6758 129.156C80.863 129.498 81.1437 129.77 81.5181 129.974C81.9006 130.169 82.3685 130.267 82.9219 130.267C83.6136 130.267 84.224 130.12 84.7529 129.827C85.2819 129.534 85.701 129.176 86.0103 128.753C86.3276 128.33 86.4985 127.919 86.5229 127.52L87.4873 128.606C87.4303 128.948 87.2757 129.327 87.0234 129.742C86.7712 130.157 86.4334 130.556 86.0103 130.938C85.5952 131.312 85.0988 131.626 84.521 131.878C83.9513 132.122 83.3084 132.244 82.5923 132.244C81.6971 132.244 80.9118 132.069 80.2363 131.719C79.569 131.369 79.0482 130.901 78.6738 130.315C78.3076 129.721 78.1245 129.058 78.1245 128.326C78.1245 127.618 78.2629 126.995 78.5396 126.458C78.8162 125.913 79.215 125.461 79.7358 125.103C80.2567 124.737 80.8833 124.46 81.6157 124.273C82.3481 124.086 83.166 123.992 84.0693 123.992H86.6938ZM95.9346 129.961L99.5479 118.792H101.855L97.1064 132H95.5928L95.9346 129.961ZM92.9194 118.792L96.6426 130.022L96.8989 132H95.3853L90.6001 118.792H92.9194ZM111.621 129.742V122.942C111.621 122.422 111.515 121.97 111.303 121.587C111.1 121.197 110.791 120.896 110.375 120.684C109.96 120.472 109.448 120.367 108.837 120.367C108.268 120.367 107.767 120.464 107.336 120.66C106.913 120.855 106.579 121.111 106.335 121.429C106.099 121.746 105.981 122.088 105.981 122.454H103.723C103.723 121.982 103.845 121.514 104.089 121.05C104.333 120.586 104.683 120.167 105.139 119.793C105.603 119.41 106.156 119.109 106.799 118.89C107.45 118.662 108.174 118.548 108.972 118.548C109.932 118.548 110.778 118.711 111.511 119.036C112.251 119.362 112.829 119.854 113.244 120.513C113.667 121.164 113.879 121.982 113.879 122.967V129.119C113.879 129.559 113.916 130.027 113.989 130.523C114.07 131.019 114.188 131.447 114.343 131.805V132H111.987C111.873 131.74 111.783 131.394 111.718 130.962C111.653 130.523 111.621 130.116 111.621 129.742ZM112.011 123.992L112.036 125.579H109.753C109.11 125.579 108.536 125.632 108.032 125.738C107.527 125.835 107.104 125.986 106.762 126.189C106.42 126.393 106.16 126.649 105.981 126.958C105.802 127.26 105.712 127.614 105.712 128.021C105.712 128.436 105.806 128.814 105.993 129.156C106.18 129.498 106.461 129.77 106.835 129.974C107.218 130.169 107.686 130.267 108.239 130.267C108.931 130.267 109.541 130.12 110.07 129.827C110.599 129.534 111.018 129.176 111.328 128.753C111.645 128.33 111.816 127.919 111.84 127.52L112.805 128.606C112.748 128.948 112.593 129.327 112.341 129.742C112.089 130.157 111.751 130.556 111.328 130.938C110.913 131.312 110.416 131.626 109.838 131.878C109.269 132.122 108.626 132.244 107.91 132.244C107.014 132.244 106.229 132.069 105.554 131.719C104.886 131.369 104.366 130.901 103.991 130.315C103.625 129.721 103.442 129.058 103.442 128.326C103.442 127.618 103.58 126.995 103.857 126.458C104.134 125.913 104.532 125.461 105.053 125.103C105.574 124.737 106.201 124.46 106.933 124.273C107.666 124.086 108.483 123.992 109.387 123.992H112.011Z" fill="#EA2D2E"/>
</svg>
