<svg width="150" height="150" viewBox="0 0 150 150" fill="none" xmlns="http://www.w3.org/2000/svg">
<g clip-path="url(#clip0_42_24)">
<path d="M8.90039 53.1492C8.78079 53.1501 8.66342 53.1816 8.55937 53.2406L0.342187 57.9703C0.314063 57.9878 0.291797 58.0101 0.266016 58.0289C0.242578 58.0453 0.220313 58.0625 0.199219 58.0804C0.177344 58.1054 0.157031 58.132 0.138281 58.1601C0.123047 58.1812 0.104297 58.1988 0.0914062 58.221C0.0742188 58.2554 0.0597656 58.291 0.0480469 58.3277C0.0410156 58.3476 0.0292969 58.3652 0.0246094 58.3863C0.0088165 58.4444 0.000545754 58.5042 0 58.5644L0 86.7046C0 86.9507 0.13125 87.1769 0.343359 87.2988L16.7754 96.7593C16.8117 96.7804 16.8504 96.7921 16.8891 96.8062C16.9066 96.8121 16.9242 96.8226 16.9418 96.8273C16.9996 96.8429 17.0582 96.8507 17.1176 96.8507C17.1769 96.8504 17.236 96.8425 17.2934 96.8273C17.309 96.8226 17.3246 96.8164 17.3402 96.8085C17.3801 96.7945 17.4211 96.7816 17.4586 96.7593L33.8918 87.2988C33.9964 87.2392 34.0833 87.1529 34.1437 87.0487C34.204 86.9445 34.2356 86.8262 34.2352 86.7058V77.721L42.1078 73.1882C42.2118 73.1276 42.2982 73.041 42.3584 72.9368C42.4186 72.8326 42.4506 72.7144 42.4512 72.5941V63.2132C42.451 63.1531 42.4431 63.0932 42.4277 63.0351L42.4031 62.9777C42.3891 62.9425 42.3785 62.905 42.3586 62.8722C42.3469 62.8488 42.327 62.8312 42.3117 62.8113C42.2918 62.7843 42.2754 62.755 42.2508 62.7316C42.232 62.7117 42.2063 62.6964 42.184 62.68C42.1605 62.6589 42.1355 62.6394 42.109 62.6214L33.8906 57.8906C33.7869 57.8303 33.669 57.7985 33.549 57.7985C33.429 57.7985 33.3112 57.8303 33.2074 57.8906L24.9914 62.6214C24.9641 62.6394 24.9387 62.6589 24.9152 62.68C24.8918 62.6957 24.8695 62.7124 24.8484 62.7304C24.8266 62.7554 24.8062 62.782 24.7875 62.8101C24.7723 62.8312 24.7523 62.85 24.7406 62.8722C24.7234 62.9058 24.7086 62.941 24.6961 62.9777L24.6727 63.0351C24.6573 63.0932 24.6494 63.1531 24.6492 63.2132V72.198L17.802 76.1402V58.5644C17.8019 58.5039 17.794 58.4436 17.7785 58.3851L17.7539 58.3277C17.7398 58.2925 17.7293 58.255 17.7094 58.2222C17.6977 58.1988 17.6777 58.1812 17.6625 58.1601C17.6437 58.1328 17.6234 58.1062 17.6016 58.0804C17.5805 58.0625 17.5582 58.0453 17.5348 58.0289C17.5113 58.0085 17.4863 57.989 17.4598 57.9703H17.4586L9.24258 53.2406C9.13818 53.1814 9.02038 53.1499 8.90039 53.1492ZM8.90039 54.6234L15.7441 58.5644L8.90039 62.5042L2.05664 58.5644L8.90039 54.6234ZM33.5496 59.2734L40.3934 63.2144L33.5496 67.1542L26.7059 63.2144L33.5496 59.2734ZM16.432 59.748V76.9277L12.4605 79.2152L9.58594 80.871V63.6914L13.5586 61.4039L16.432 59.748ZM1.36875 59.748L4.24336 61.4039L8.21602 63.6902V82.0582C8.21602 82.0839 8.22305 82.1085 8.22656 82.1343C8.23008 82.1683 8.23125 82.2023 8.23945 82.2351C8.24766 82.2621 8.26289 82.2878 8.27227 82.3136C8.28398 82.3417 8.29219 82.3722 8.30742 82.3992L8.30977 82.4015C8.32383 82.4249 8.34375 82.4449 8.36016 82.4671C8.37734 82.4929 8.39609 82.5171 8.41641 82.5398L8.41875 82.5421C8.43984 82.5601 8.46172 82.5765 8.48438 82.5914C8.50781 82.6124 8.53242 82.632 8.5582 82.6499H8.56172L8.56406 82.6523L16.4332 87.1054V94.9828L1.36992 86.3109L1.36875 59.748ZM53.3754 63.2167V86.3191H64.2984V82.9195H57.1699V63.2167H53.3754ZM146.404 63.2167V86.3191H150V63.2167H146.404ZM26.0156 64.398L28.8926 66.0539L32.8641 68.3402V76.1402L29.9883 74.4855L26.0156 72.1992V64.398ZM41.0801 64.398V72.1992L34.2328 76.1414V68.3402L38.2055 66.0539L41.0801 64.398ZM72.9434 70.5421C71.7777 70.5421 70.7109 70.757 69.743 71.1867C68.7998 71.5981 67.9513 72.1992 67.2504 72.9527C65.8311 74.5016 65.0474 76.5284 65.0555 78.6292C65.0555 79.7292 65.248 80.7632 65.6332 81.7312C66.0071 82.6827 66.5556 83.5559 67.2504 84.3058C67.9434 85.0535 68.7742 85.6417 69.743 86.0706C70.7109 86.5003 71.7781 86.7152 72.9445 86.7152C73.8469 86.7152 74.7434 86.4949 75.634 86.0542C76.5246 85.6152 77.2121 85.0101 77.6965 84.239V86.3191H81.2941V70.9394H77.6965V73.0183C77.2121 72.2488 76.5246 71.6437 75.634 71.2031C74.7434 70.7632 73.8469 70.5433 72.9445 70.5433L72.9434 70.5421ZM102.186 70.5421C101.02 70.5421 99.9523 70.757 98.9836 71.1867C98.0408 71.5982 97.1927 72.1994 96.4922 72.9527C95.7958 73.7071 95.2472 74.5856 94.875 75.5425C94.4882 76.5254 94.2922 77.573 94.2973 78.6292C94.2973 79.7292 94.4898 80.7632 94.875 81.7312C95.2489 82.6827 95.7974 83.5559 96.4922 84.3058C97.1929 85.0587 98.0409 85.6594 98.9836 86.0706C99.9516 86.5003 101.019 86.7152 102.186 86.7152C103.088 86.7152 103.984 86.4949 104.876 86.0542C105.766 85.6152 106.454 85.0101 106.938 84.239V86.3191H110.536V70.9394H106.938V73.0183C106.454 72.2488 105.766 71.6437 104.876 71.2031C103.985 70.7632 103.089 70.5421 102.186 70.5421ZM136.447 70.5433C132.042 70.5433 128.556 74.1644 128.556 78.6292C128.556 83.5652 131.931 86.7152 136.909 86.7152C139.695 86.7152 141.473 85.6488 143.647 83.3285L141.217 81.4488C141.216 81.4511 139.383 83.857 136.646 83.857C133.464 83.857 132.125 81.2929 132.125 79.9664H144.059C144.686 74.8851 141.346 70.5445 136.447 70.5445V70.5433ZM84.1324 70.9394V86.3191H87.7301V74.4785H93.9023V70.9394H84.1324ZM112.271 70.9394L118.175 86.3191H122.698L128.602 70.9394H124.957L120.437 82.7167L115.915 70.9394H112.271ZM25.3324 73.3851L32.1715 77.3226L27.1535 80.1867L17.1141 85.9171L10.2809 82.0499L17.4574 77.9179L25.3324 73.3851ZM136.419 73.4015C140.262 73.4015 140.728 76.9957 140.755 77.2921H132.135C132.162 76.9968 132.577 73.4015 136.419 73.4015ZM73.1414 73.7449C73.8234 73.7449 74.4453 73.8769 75.007 74.141C75.568 74.405 76.0465 74.7566 76.4426 75.1957C76.8387 75.6371 77.1469 76.1542 77.3672 76.7472C77.5859 77.341 77.6957 77.9683 77.6965 78.6292C77.6965 79.2894 77.5867 79.9164 77.3672 80.5101C77.1598 81.0811 76.8461 81.6076 76.4426 82.0617C76.04 82.5063 75.5517 82.8651 75.007 83.1164C74.4223 83.3856 73.7851 83.5213 73.1414 83.5136C72.5034 83.5231 71.8715 83.3876 71.2934 83.1175C70.7565 82.8612 70.2748 82.5026 69.8754 82.0617C69.4729 81.6097 69.1642 81.0823 68.9672 80.5101C68.7562 79.9056 68.65 79.2695 68.6531 78.6292C68.6531 77.9683 68.7578 77.341 68.9672 76.7472C69.1758 76.1542 69.4785 75.6374 69.8754 75.1968C70.2748 74.7559 70.7565 74.3973 71.2934 74.141C71.8434 73.8769 72.4586 73.7449 73.1414 73.7449ZM102.383 73.7449C103.026 73.737 103.663 73.8723 104.248 74.141C104.81 74.405 105.289 74.7566 105.684 75.1957C106.08 75.6371 106.387 76.1542 106.608 76.7472C106.829 77.3499 106.941 77.9872 106.938 78.6292C106.941 79.2709 106.829 79.9078 106.608 80.5101C106.401 81.081 106.087 81.6075 105.684 82.0617C105.281 82.5065 104.793 82.8652 104.248 83.1164C103.664 83.3853 103.027 83.521 102.384 83.5136C101.746 83.5232 101.114 83.3878 100.535 83.1175C99.9979 82.8613 99.5158 82.5027 99.116 82.0617C98.714 81.6096 98.4057 81.0822 98.209 80.5101C97.998 79.9056 97.8918 79.2695 97.8949 78.6292C97.8949 77.9683 97.9992 77.341 98.2078 76.7472C98.4164 76.1542 98.7191 75.6374 99.116 75.1968C99.5154 74.7559 99.9971 74.3973 100.534 74.141C101.085 73.8769 101.701 73.7449 102.383 73.7449ZM32.8652 78.5039V86.3085L17.802 94.9804V87.1019L28.9582 80.7339L32.8652 78.5039Z" fill="#F0513F"/>
</g>
<defs>
<clipPath id="clip0_42_24">
<rect width="150" height="150" fill="white"/>
</clipPath>
</defs>
</svg>
