<svg width="180" height="160" viewBox="0 0 180 160" fill="none" xmlns="http://www.w3.org/2000/svg">
<g clip-path="url(#clip0_42_112)">
<path d="M65.6373 93.1099L69.2932 104.972C70.1147 107.666 70.4572 109.546 70.32 110.617C72.3195 105.262 73.7166 99.4263 74.5114 93.1099H78.9075C77.017 103.393 74.5243 110.866 71.4295 115.527C69.0183 119.119 66.377 120.915 63.5006 120.915C62.7337 120.915 61.7882 120.684 60.6663 120.224V117.745C61.2145 117.825 61.8576 117.868 62.5972 117.868C63.9388 117.868 65.0209 117.497 65.8434 116.754C66.8285 115.85 67.3217 114.833 67.3217 113.707C67.3217 112.937 66.9371 111.359 66.1714 108.971L61.0775 93.1099H65.6373ZM37.657 85.819L44.3533 106.25H44.3946L51.132 85.819H56.6366C57.8419 95.9513 58.5538 105.222 58.7723 113.625H54.1315C53.9679 105.77 53.5162 98.3831 52.7762 91.464H52.7358L45.6688 113.625H42.1346L35.1103 91.464H35.0689C34.5481 98.1089 34.2195 105.496 34.0831 113.625H29.851C30.1245 103.738 30.8089 94.4703 31.9043 85.819H37.657Z" fill="#00758F"/>
<path d="M112.673 85.4064C119.876 85.4064 123.478 90.0082 123.478 99.2075C123.478 104.206 122.394 107.982 120.23 110.533C119.84 111 119.409 111.402 118.955 111.775L124.053 114.296L124.048 114.296L122.238 117.421L115.6 113.548C114.499 113.873 113.289 114.036 111.969 114.036C108.432 114.036 105.791 113.006 104.044 110.947C102.127 108.669 101.168 105.083 101.168 100.196C101.168 95.225 102.25 91.4633 104.415 88.9091C106.386 86.5727 109.14 85.4064 112.673 85.4064ZM90.6151 85.4465C93.1896 85.4465 95.5304 86.1354 97.6389 87.5083L96.568 89.8947C94.7638 89.1278 92.9849 88.7428 91.2307 88.7428C89.8074 88.7428 88.7106 89.0853 87.946 89.7747C87.1772 90.4579 86.7017 91.3371 86.7017 92.409C86.7017 94.0561 87.8751 95.4844 90.0416 96.6911C90.7514 97.0791 91.4587 97.4716 92.1635 97.8685L92.3252 97.9594L92.4062 98.005L92.5681 98.0959L92.6489 98.1415L92.8106 98.2327C94.4506 99.1572 95.9938 100.04 95.9938 100.04C98.1601 101.578 99.2399 103.217 99.2399 105.917C99.2399 108.276 98.3758 110.211 96.6531 111.726C94.9292 113.234 92.6132 113.99 89.7129 113.99C87.0003 113.99 84.3714 113.12 81.8249 111.394L83.0162 109.005C85.2076 110.104 87.1906 110.652 88.9714 110.652C90.6414 110.652 91.9488 110.28 92.8945 109.543C93.8383 108.802 94.4038 107.767 94.4038 106.455C94.4038 104.804 93.2553 103.393 91.1485 102.209C90.489 101.845 89.8315 101.477 89.176 101.105L89.0146 101.014C88.7181 100.846 88.4195 100.677 88.1269 100.511L87.9683 100.42C86.5457 99.6112 85.3157 98.9042 85.3157 98.9042C83.2095 97.3636 82.1534 95.7106 82.1534 92.987C82.1534 90.7345 82.941 88.9138 84.5138 87.5287C86.0905 86.1406 88.1243 85.4465 90.6151 85.4465ZM131.943 85.8187V110.204H140.692V113.625H127.506V85.8189L131.943 85.8187ZM145.554 110.215V110.793H144.592V113.622H143.857V110.793H142.857V110.215H145.554ZM147.33 110.215L148.254 112.537L149.102 110.215H150.145V113.622H149.452V111.029L148.486 113.622H147.986L147.019 111.029H146.982V113.622H146.326V110.215H147.33ZM112.22 88.8259C107.975 88.8259 105.852 92.3291 105.852 99.3309C105.852 103.342 106.414 106.25 107.538 108.063C108.578 109.74 110.207 110.577 112.426 110.577C116.671 110.577 118.794 107.047 118.794 99.9892C118.794 96.0346 118.232 93.1513 117.11 91.3376C116.068 89.6638 114.439 88.8259 112.22 88.8259" fill="#F29111"/>
<path d="M101.094 40.723C102.502 37.263 107.426 39.8832 109.336 41.0918C109.805 41.3942 110.342 42.0331 110.879 42.2692C111.716 42.3021 112.553 42.3677 113.392 42.4027C114.966 42.7725 116.44 43.0746 117.68 43.7809C123.443 47.1749 127.195 50.6334 130.648 56.3462C131.385 57.5562 131.754 58.8656 132.357 60.175C133.193 62.1268 134.133 64.1757 135.104 66.0212C135.538 66.8962 135.875 67.8692 136.478 68.6081C136.714 68.946 137.383 69.0456 137.783 69.2474C138.89 69.82 140.23 70.2547 141.27 70.9267C143.213 72.1381 145.092 73.5817 146.799 75.0596C147.436 75.6301 147.869 76.4376 148.476 77.041V77.3455C147.938 77.5106 147.401 77.6798 146.864 77.8154C145.692 78.1166 144.653 78.0485 143.515 78.3499C142.812 78.5539 141.939 78.8229 141.202 78.8913L141.27 78.9599C141.704 80.1993 144.051 81.2072 145.124 81.9485C146.428 82.8893 147.635 84.0302 148.608 85.3406C148.943 85.6749 149.279 85.9792 149.613 86.3126C149.847 86.6505 149.913 87.0875 150.149 87.3887V87.4907C149.887 87.3983 149.699 87.2221 149.521 87.0379L149.414 86.9268C149.308 86.8164 149.2 86.7078 149.078 86.6183C148.338 86.1131 147.604 85.5088 146.864 85.0391C145.593 84.2323 144.118 83.764 142.812 82.9541C142.074 82.484 141.37 81.9485 140.667 81.4105C140.029 80.9389 139.326 80.0334 138.925 79.3614C138.689 78.9902 138.657 78.5539 138.387 78.2853C138.435 77.8368 138.846 77.7035 139.261 77.5941L139.356 77.5689C139.499 77.5318 139.639 77.4947 139.762 77.4456C141.504 76.7059 143.58 76.4376 146.262 76.5048C146.161 75.8314 144.485 74.9924 143.95 74.5892C142.877 73.8152 141.74 73.0077 140.601 72.3033C139.997 71.9344 138.957 71.6651 138.288 71.3637C137.383 70.9939 135.372 70.6243 134.871 69.9199C134.019 68.8095 133.407 67.485 132.813 66.1472L132.652 65.7821L132.49 65.4172C131.788 63.8061 130.915 62.1264 130.212 60.4767C129.844 59.672 129.675 58.9657 129.272 58.1939C126.827 53.4576 123.208 49.4923 118.82 46.7036C117.378 45.7961 115.77 44.9564 113.995 44.3857C112.989 44.0819 111.782 44.2499 110.711 44.0168H110.005C109.403 43.8472 108.901 43.209 108.431 42.8726C107.394 42.1682 106.355 41.6952 105.114 41.1926C104.679 40.991 103.438 40.5216 103.005 40.8912C102.737 40.9586 102.6 41.0599 102.534 41.3291C102.268 41.7309 102.502 42.3362 102.668 42.7067C103.172 43.7805 103.875 44.4186 104.513 45.326C105.08 46.1307 105.786 47.0381 106.188 47.9131C107.056 49.7939 107.461 51.8778 108.266 53.7584C108.564 54.4656 109.036 55.2703 109.47 55.9082C109.839 56.4146 110.508 56.7806 110.711 57.4216C111.114 58.0936 110.106 60.3109 109.873 61.015C109 63.7704 109.169 67.6004 110.174 69.9887L110.228 70.1147L110.281 70.2423C110.648 71.117 111.041 72.0589 112.017 72.3035C112.084 72.2368 112.017 72.2718 112.15 72.2368C112.386 70.3882 112.453 68.6079 113.09 67.1615C113.458 66.2571 114.194 65.6178 114.697 64.8796C115.033 65.0807 115.033 65.6871 115.234 66.0884C115.67 67.1293 116.138 68.2705 116.676 69.3144C117.779 71.4643 119.02 73.5486 120.427 75.4292C120.898 76.1009 121.567 76.8403 122.17 77.4453C122.438 77.6796 122.739 77.8149 122.941 78.1164H123.007V78.2179C122.001 77.8473 121.364 76.8074 120.562 76.2003C119.053 75.0591 117.246 73.3453 116.205 71.7009C115.77 70.7568 115.3 69.852 114.831 68.9126V68.8447C114.63 69.113 114.697 69.3795 114.597 69.7855C114.162 71.4643 114.497 73.3794 112.989 73.9832C111.28 74.6905 110.005 72.8421 109.47 72.0021C107.761 69.2141 107.293 64.5107 108.498 60.714C108.766 59.8736 108.802 58.8656 109.27 58.1946C109.169 57.5879 108.701 57.4221 108.431 57.0504C107.962 56.415 107.56 55.6749 107.193 54.9693C106.488 53.5911 105.986 51.9443 105.451 50.4662C105.215 49.8625 105.148 49.2566 104.913 48.6852C104.513 47.813 103.775 46.938 103.205 46.1664C102.434 45.0574 100.189 42.9081 101.094 40.723ZM112.084 47.3053C112.173 47.395 112.281 47.4735 112.393 47.5508L112.528 47.6434C112.708 47.7679 112.882 47.899 112.988 48.0776C113.158 48.3139 113.189 48.5473 113.392 48.7841C113.392 49.5916 113.158 50.1285 112.685 50.4631C112.685 50.4631 112.653 50.4983 112.62 50.5312C112.352 49.9929 112.117 49.4575 111.847 48.9197C111.515 48.4502 111.046 48.0778 110.775 47.5414H110.71V47.474C111.114 47.3741 111.515 47.3053 112.084 47.3053Z" fill="#00758F"/>
</g>
<defs>
<clipPath id="clip0_42_112">
<rect width="120.298" height="82" fill="white" transform="translate(29.851 39)"/>
</clipPath>
</defs>
</svg>
