<svg width="180" height="160" viewBox="0 0 180 160" fill="none" xmlns="http://www.w3.org/2000/svg">
<path d="M25 80.0001C25 98.8836 54.1017 114.193 90 114.193C125.898 114.193 155 98.8836 155 80.0001C155 61.1165 125.897 45.807 90 45.807C54.1027 45.807 25 61.1165 25 80.0001Z" fill="url(#paint0_radial_42_83)"/>
<path d="M90 111.654C124.496 111.654 152.461 97.481 152.461 80.0001C152.461 62.5171 124.496 48.3461 90 48.3461C55.5043 48.3461 27.5391 62.5171 27.5391 80.0001C27.5391 97.481 55.5043 111.654 90 111.654Z" fill="#777BB3"/>
<path d="M60.3153 83.9243C63.1519 83.9243 65.2685 83.4013 66.6081 82.3704C67.9345 81.3487 68.8496 79.5805 69.33 77.1146C69.7769 74.8091 69.6062 73.2003 68.8222 72.331C68.0219 71.4433 66.2902 70.9934 63.676 70.9934H59.1423L56.6306 83.9243H60.3153ZM45.4882 99.8524C45.3842 99.8522 45.2815 99.8291 45.1875 99.7845C45.0935 99.74 45.0105 99.6753 44.9444 99.5949C44.8784 99.5145 44.831 99.4205 44.8056 99.3196C44.7802 99.2187 44.7775 99.1135 44.7976 99.0114L51.457 64.7463C51.4885 64.5861 51.5745 64.4418 51.7004 64.3379C51.8264 64.234 51.9844 64.177 52.1476 64.1765H66.5025C71.0139 64.1765 74.3716 65.4014 76.483 67.8175C78.6037 70.2449 79.2598 73.6411 78.43 77.9078C78.0918 79.6455 77.5108 81.2593 76.7034 82.7056C75.8632 84.1933 74.7907 85.5373 73.5265 86.6868C71.9716 88.1412 70.2115 89.1975 68.2991 89.818C66.4182 90.4314 64.001 90.7422 61.1187 90.7422H55.3052L53.6457 99.2816C53.6144 99.4423 53.5281 99.5871 53.4018 99.6913C53.2754 99.7954 53.1168 99.8523 52.953 99.8524H45.4882Z" fill="black"/>
<path d="M59.7242 71.6983H63.676C66.8316 71.6983 67.9274 72.3909 68.3001 72.8043C68.9166 73.4888 69.0344 74.9341 68.6363 76.9805C68.1905 79.2728 67.3637 80.8988 66.1785 81.8109C64.9659 82.7452 62.9915 83.2185 60.3153 83.2185H57.4858L59.7242 71.6983ZM66.5025 63.4717H52.1487C51.8213 63.4717 51.5042 63.5855 51.2515 63.7936C50.9988 64.0016 50.8262 64.291 50.7634 64.6123L44.1039 98.8784C44.0646 99.0826 44.0708 99.2928 44.1221 99.4943C44.1735 99.6957 44.2687 99.8833 44.4009 100.044C44.5332 100.204 44.6992 100.333 44.8871 100.422C45.0751 100.511 45.2803 100.557 45.4882 100.557H52.953C53.2803 100.557 53.5974 100.443 53.8499 100.235C54.1024 100.026 54.2747 99.737 54.3373 99.4157L55.8862 91.4471H61.1177C64.0752 91.4471 66.5655 91.1241 68.5185 90.4884C70.5264 89.8363 72.3738 88.7303 74.009 87.2008C75.3258 86.0018 76.4432 84.6006 77.3189 83.0499C78.1629 81.5397 78.7702 79.8538 79.1216 78.0419C79.9951 73.5498 79.2851 69.9534 77.0132 67.3534C74.7626 64.7768 71.2262 63.4707 66.5025 63.4707V63.4717ZM55.7744 84.6282H60.3153C63.3249 84.6289 65.5661 84.0618 67.0387 82.927C68.5114 81.7936 69.506 79.9008 70.0227 77.2487C70.5156 74.7015 70.2904 72.9045 69.3473 71.8577C68.4027 70.811 66.5123 70.2876 63.676 70.2876H58.5613L55.7744 84.6282ZM66.5035 64.8794C70.8219 64.8794 73.9714 66.0128 75.9519 68.2797C77.9323 70.5466 78.5282 73.7106 77.7394 77.7717C77.413 79.4455 76.8629 80.975 76.089 82.3603C75.3137 83.747 74.3011 85.0155 73.0512 86.1659C71.5617 87.5607 69.9055 88.5543 68.0828 89.1467C66.2608 89.7398 63.9394 90.0361 61.1187 90.0354H54.7243L52.9541 99.1455H45.4892L52.1497 64.8794H66.5035Z" fill="white"/>
<path d="M95.5443 90.7423C95.4402 90.7424 95.3374 90.7195 95.2432 90.6751C95.149 90.6308 95.0658 90.5662 94.9996 90.4859C94.9334 90.4056 94.8858 90.3116 94.8602 90.2107C94.8346 90.1098 94.8317 90.0045 94.8516 89.9023L97.7969 74.7411C98.0783 73.2989 98.0092 72.265 97.604 71.8262C97.3551 71.5591 96.6097 71.1112 94.4047 71.1112H89.0666L85.3637 90.1725C85.3319 90.333 85.2453 90.4775 85.1188 90.5812C84.9923 90.685 84.8336 90.7415 84.67 90.7412H77.2661C77.1621 90.7413 77.0593 90.7184 76.9652 90.6741C76.8711 90.6299 76.7879 90.5653 76.7216 90.4852C76.6554 90.405 76.6076 90.3112 76.5818 90.2105C76.556 90.1097 76.5528 90.0045 76.5724 89.9023L83.2329 55.6362C83.2644 55.4756 83.3507 55.3311 83.4771 55.2271C83.6034 55.1232 83.7619 55.0664 83.9255 55.0664H91.3294C91.4334 55.0663 91.5362 55.0893 91.6303 55.1335C91.7244 55.1778 91.8076 55.2423 91.8739 55.3225C91.9402 55.4026 91.9879 55.4964 92.0137 55.5972C92.0395 55.6979 92.0427 55.8032 92.0231 55.9053L90.4164 64.1766H96.1577C100.532 64.1766 103.498 64.9464 105.225 66.5338C106.985 68.1517 107.536 70.7385 106.858 74.2252L103.76 90.1725C103.728 90.3328 103.642 90.4772 103.515 90.5809C103.389 90.6846 103.23 90.7413 103.067 90.7412L95.5443 90.7423Z" fill="black"/>
<path d="M91.3305 54.3606H83.9256C83.5981 54.3607 83.2808 54.4746 83.0281 54.6828C82.7754 54.8911 82.6029 55.1807 82.5403 55.5022L75.8808 89.7673C75.8413 89.9715 75.8474 90.1819 75.8987 90.3834C75.9499 90.585 76.0451 90.7727 76.1774 90.9332C76.3096 91.0937 76.4757 91.223 76.6637 91.3119C76.8518 91.4007 77.0571 91.4469 77.2651 91.4472H84.67C84.9975 91.4471 85.3148 91.3332 85.5675 91.1249C85.8202 90.9167 85.9927 90.627 86.0553 90.3056L89.6476 71.8161H94.4028C96.6046 71.8161 97.0678 72.2864 97.085 72.3077C97.2191 72.4499 97.3948 73.1151 97.1043 74.6071L94.159 89.7673C94.1195 89.9716 94.1256 90.1821 94.1769 90.3837C94.2283 90.5853 94.3235 90.7731 94.4559 90.9336C94.5883 91.0941 94.7545 91.2234 94.9426 91.3122C95.1308 91.401 95.3363 91.4471 95.5443 91.4472H103.068C103.395 91.4469 103.712 91.3328 103.965 91.1246C104.217 90.9164 104.39 90.6269 104.452 90.3056L107.551 74.3603C108.277 70.6167 107.656 67.8095 105.703 66.0149C103.838 64.3025 100.716 63.4707 96.1578 63.4707H91.2726L92.7158 56.0415C92.7555 55.8371 92.7495 55.6265 92.6982 55.4248C92.647 55.223 92.5518 55.0351 92.4194 54.8745C92.287 54.7138 92.1207 54.5845 91.9325 54.4956C91.7442 54.4068 91.5386 54.3607 91.3305 54.3606ZM91.3305 55.7723L89.5603 64.8804H96.1578C100.309 64.8804 103.172 65.6049 104.747 67.0539C106.323 68.5015 106.796 70.8476 106.167 74.0922L103.067 90.0365H95.5443L98.4906 74.8752C98.8258 73.1507 98.7022 71.9746 98.1199 71.3469C97.5377 70.7199 96.2993 70.4065 94.4048 70.4065H88.4847L84.67 90.0354H77.2641L83.9246 55.7693H91.3305V55.7723Z" fill="white"/>
<path d="M118.576 83.9243C121.412 83.9243 123.53 83.4013 124.87 82.3704C126.195 81.3487 127.111 79.5805 127.591 77.1146C128.038 74.8091 127.869 73.2003 127.084 72.331C126.283 71.4433 124.552 70.9934 121.937 70.9934H117.405L114.891 83.9243H118.576ZM103.752 99.8524C103.647 99.8525 103.544 99.8296 103.45 99.7852C103.356 99.7408 103.273 99.6761 103.206 99.5957C103.14 99.5152 103.093 99.4211 103.067 99.3201C103.042 99.2191 103.039 99.1137 103.059 99.0114L109.718 64.7463C109.75 64.5858 109.836 64.4412 109.963 64.3372C110.089 64.2333 110.247 64.1765 110.411 64.1765H124.765C129.276 64.1765 132.634 65.4014 134.744 67.8175C136.866 70.2449 137.521 73.6411 136.691 77.9078C136.374 79.5883 135.791 81.2078 134.966 82.7056C134.126 84.1933 133.053 85.5373 131.789 86.6868C130.235 88.1412 128.473 89.1975 126.561 89.818C124.681 90.4314 122.263 90.7422 119.38 90.7422H113.568L111.909 99.2816C111.878 99.4425 111.791 99.5874 111.665 99.6916C111.538 99.7957 111.379 99.8526 111.215 99.8524H103.752Z" fill="black"/>
<path d="M117.986 71.6983H121.937C125.093 71.6983 126.189 72.3909 126.56 72.8043C127.18 73.4888 127.296 74.9341 126.899 76.9805C126.452 79.2728 125.625 80.8988 124.44 81.8109C123.226 82.7452 121.252 83.2185 118.577 83.2185H115.747L117.986 71.6983ZM124.764 63.4717H110.41C110.083 63.472 109.766 63.5859 109.513 63.7939C109.261 64.0019 109.089 64.2912 109.026 64.6123L102.365 98.8784C102.326 99.0826 102.332 99.293 102.384 99.4945C102.435 99.696 102.53 99.8837 102.663 100.044C102.795 100.204 102.961 100.334 103.149 100.422C103.337 100.511 103.543 100.557 103.751 100.557H111.215C111.543 100.557 111.86 100.443 112.112 100.235C112.365 100.026 112.537 99.737 112.6 99.4157L114.149 91.4471H119.379C122.335 91.4471 124.827 91.1241 126.779 90.4884C128.788 89.8363 130.635 88.7303 132.271 87.1998C133.588 86.001 134.705 84.6002 135.58 83.0499C136.425 81.5397 137.031 79.8538 137.383 78.0419C138.256 73.5498 137.547 69.9534 135.275 67.3534C133.024 64.7768 129.488 63.4707 124.763 63.4707L124.764 63.4717ZM114.036 84.6282H118.576C121.585 84.6289 123.827 84.0618 125.301 82.927C126.774 81.7936 127.768 79.9008 128.283 77.2487C128.778 74.7015 128.553 72.9045 127.608 71.8577C126.662 70.811 124.772 70.2876 121.937 70.2876H116.824L114.036 84.6282ZM124.764 64.8794C129.082 64.8794 132.232 66.0128 134.212 68.2797C136.193 70.5466 136.788 73.7106 135.999 77.7717C135.674 79.4455 135.124 80.975 134.349 82.3603C133.575 83.747 132.562 85.0155 131.311 86.1659C129.821 87.5607 128.165 88.5543 126.342 89.1467C124.521 89.7398 122.2 90.0361 119.379 90.0354H112.986L111.213 99.1455H103.749L110.409 64.8794H124.764Z" fill="white"/>
<defs>
<radialGradient id="paint0_radial_42_83" cx="0" cy="0" r="1" gradientUnits="userSpaceOnUse" gradientTransform="translate(64.0264 57.8279) scale(85.3545)">
<stop stop-color="#AEB2D5"/>
<stop offset="0.3" stop-color="#AEB2D5"/>
<stop offset="0.75" stop-color="#484C89"/>
<stop offset="1" stop-color="#484C89"/>
</radialGradient>
</defs>
</svg>
