<svg width="180" height="160" viewBox="0 0 180 160" fill="none" xmlns="http://www.w3.org/2000/svg">
<path d="M107.178 89.4336C107.672 85.3227 107.524 84.7195 110.586 85.3852L111.363 85.4539C113.718 85.561 116.798 85.075 118.607 84.2344C122.502 82.4274 124.812 79.4086 120.971 80.2016C112.209 82.0086 111.607 79.043 111.607 79.043C120.859 65.3156 124.727 47.8906 121.389 43.625C112.284 31.9906 96.5234 37.4922 96.2594 37.6352L96.175 37.6516C94.4437 37.2914 92.507 37.0774 90.3305 37.0422C86.3656 36.9774 83.357 38.0821 81.075 39.8125C81.075 39.8125 52.9586 28.2289 54.2664 54.3797C54.5445 59.943 62.2406 96.475 71.4195 85.4406C74.7742 81.4063 78.0164 77.9945 78.0164 77.9945C79.6266 79.0641 81.5539 79.6094 83.5758 79.4133L83.732 79.2805C83.6836 79.7813 83.7047 80.2711 83.7953 80.8508C81.4305 83.4938 82.1258 83.9578 77.3977 84.9305C72.6148 85.9164 75.425 87.6711 77.2586 88.1297C79.4836 88.6867 84.6281 89.475 88.1055 84.6071L87.9672 85.1625C88.8953 85.9047 88.832 90.4961 88.9633 93.7766C89.0945 97.0571 89.3148 100.118 89.9836 101.924C90.6523 103.729 91.4414 108.378 97.6547 107.047C102.847 105.933 106.816 104.331 107.178 89.4336Z" fill="black"/>
<path d="M95.6312 110.289C92.8828 110.289 91.0938 109.227 90.0063 108.2C88.3656 106.652 87.7148 104.658 87.3266 103.466L87.1586 102.969C86.3758 100.855 86.1109 97.8132 85.9539 93.896C85.9308 93.2837 85.9112 92.6712 85.8953 92.0585C85.882 91.589 85.8656 91 85.8422 90.382C84.8519 90.8538 83.801 91.1861 82.7195 91.3695C80.782 91.7007 78.6992 91.5929 76.5273 91.0499C74.9953 90.6671 73.4031 89.8734 72.4961 88.6468C69.8516 90.9632 67.3289 90.6484 65.9547 90.1906C63.5305 89.382 61.3609 87.1109 59.3211 83.2453C57.8688 80.4929 56.4633 76.9054 55.1438 72.5843C52.8469 65.0585 51.3875 57.132 51.2578 54.5304C50.85 46.3843 53.0422 40.5593 57.7734 37.2179C65.2383 31.9453 76.5469 35.0453 80.6695 36.4531C83.4391 34.7835 86.6977 33.9703 90.3805 34.0296C92.3586 34.0617 94.2414 34.2359 95.9906 34.5468C97.8148 33.9734 101.42 33.1499 105.545 33.2007C113.147 33.2914 119.446 36.2539 123.761 41.7679C126.84 45.7023 125.318 53.9632 124.136 58.5382C122.474 64.9718 119.561 71.8164 115.983 77.7742C116.955 77.7812 118.362 77.664 120.363 77.2515C124.312 76.4359 125.466 78.5531 125.779 79.5007C127.034 83.3031 121.577 86.1757 119.875 86.9656C117.694 87.9789 114.138 88.5953 111.226 88.4617L111.098 88.4531L110.334 88.3859L110.258 89.0234L110.185 89.6476C109.99 97.1976 108.911 101.979 106.691 105.139C104.366 108.451 101.132 109.38 98.2844 109.99C97.4132 110.184 96.5238 110.284 95.6312 110.289ZM89.8484 82.8093C91.6227 84.2289 91.7781 86.9 91.9164 91.8921C91.9336 92.5148 91.95 93.1046 91.9719 93.6554C92.0391 95.3226 92.1961 99.2273 92.807 100.877C92.8937 101.11 92.9711 101.348 93.0523 101.598C93.7336 103.685 94.0758 104.731 97.0219 104.1C99.4961 103.57 100.767 103.094 101.762 101.677C103.209 99.6164 104.019 95.4734 104.167 89.3593L107.177 89.4328L104.188 89.0742L104.275 88.3281C104.562 85.8687 104.768 84.0906 106.413 82.9156C107.731 81.9726 109.235 82.064 110.433 82.2796C109.117 81.2867 108.753 80.1195 108.656 79.6414L108.405 78.4054L109.11 77.3585C113.173 71.3304 116.523 63.9218 118.303 57.032C120.131 49.9523 119.573 46.1921 119.016 45.4812C111.637 36.0507 98.8375 39.9437 97.5016 40.3867L97.275 40.5085L96.1422 40.7203L95.5617 40.5999C93.9625 40.2679 92.1859 40.0843 90.2805 40.0531C87.2875 40.0031 84.8734 40.7101 82.8937 42.2124L81.5203 43.2539L79.9258 42.5968C76.5211 41.2046 66.518 38.4054 61.2398 42.1437C58.3102 44.2187 56.9758 48.2851 57.2727 54.2296C57.3703 56.1921 58.7047 63.621 60.9031 70.8273C63.943 80.7851 66.7055 84.0921 67.8586 84.4773C68.0594 84.5453 68.582 84.139 69.1016 83.5156C72.4813 79.4507 75.6953 76.0625 75.8305 75.9195L77.5734 74.0859L79.6805 75.4859C80.5297 76.0507 81.4664 76.3703 82.4289 76.4304L87.4547 72.1445L86.7266 79.5742C86.7102 79.7414 86.7023 79.9679 86.768 80.3898L86.9867 81.7984L86.0391 82.8593L85.9297 82.982L88.6906 84.257L89.8484 82.8093Z" fill="black"/>
<path d="M120.973 80.2016C112.211 82.0086 111.609 79.0422 111.609 79.0422C120.86 65.3149 124.727 47.8891 121.39 43.6242C112.284 31.9899 96.5234 37.4922 96.2602 37.6352L96.175 37.65C94.4437 37.2914 92.507 37.0774 90.3297 37.0422C86.3648 36.9774 83.357 38.0813 81.075 39.8118C81.075 39.8118 52.9578 28.2289 54.2656 54.3797C54.5437 59.943 62.2398 96.475 71.4187 85.4407C74.7734 81.4063 78.0148 77.9946 78.0148 77.9946C79.625 79.0641 81.5523 79.6094 83.5734 79.4133L83.7305 79.2805C83.682 79.7813 83.7039 80.2711 83.793 80.8508C81.4289 83.4938 82.1227 83.9578 77.3961 84.9305C72.6125 85.9164 75.4227 87.6711 77.2578 88.1297C79.482 88.6868 84.6273 89.475 88.1039 84.6071L87.9648 85.1625C88.8914 85.9047 89.5422 89.9899 89.4328 93.693C89.3234 97.3961 89.2508 99.9383 89.9813 101.924C90.7117 103.91 91.4391 108.378 97.6531 107.047C102.845 105.934 105.536 103.05 105.911 98.2407C106.177 94.8211 106.777 95.3266 106.816 92.2688L107.298 90.8211C107.854 86.1852 107.387 84.6899 110.586 85.386L111.363 85.4539C113.718 85.5618 116.799 85.075 118.608 84.2344C122.503 82.4266 124.813 79.4086 120.973 80.2016Z" fill="#336791"/>
<path d="M95.9453 108.433C90.7648 108.434 89.1242 104.331 88.4523 102.654C87.4703 100.196 87.2578 90.6554 87.4766 82.8312C87.4912 82.57 87.6071 82.3248 87.7996 82.1477C87.9922 81.9706 88.2463 81.8756 88.5078 81.8829C88.7694 81.8903 89.0177 81.9993 89.2001 82.1869C89.3824 82.3745 89.4844 82.6258 89.4844 82.8875C89.232 91.9117 89.5906 100.089 90.3172 101.908C91.4523 104.745 93.1734 107.227 98.0414 106.185C102.663 105.194 104.393 103.441 105.163 98.9742C105.755 95.5453 106.924 85.7914 107.068 83.8664C107.088 83.6008 107.212 83.354 107.414 83.1803C107.616 83.0065 107.878 82.92 108.144 82.9398C108.409 82.9596 108.656 83.084 108.83 83.2858C109.004 83.4875 109.09 83.7501 109.07 84.0156C108.92 86.0187 107.756 95.7546 107.141 99.3156C106.231 104.593 103.879 106.987 98.4617 108.148C97.6352 108.331 96.7918 108.426 95.9453 108.433ZM67.8586 88.3976C67.4058 88.3977 66.9561 88.3236 66.5273 88.1781C63.1625 87.0554 59.9578 81.5757 57.0016 71.8898C54.7516 64.5164 53.3258 56.8211 53.2008 54.3203C52.8297 46.9062 54.7398 41.6601 58.8766 38.7289C67.0609 32.9296 80.8297 38.4523 81.4117 38.6898C81.656 38.792 81.85 38.9866 81.9514 39.2312C82.0529 39.4757 82.0536 39.7505 81.9535 39.9956C81.8533 40.2407 81.6604 40.4363 81.4167 40.5398C81.173 40.6434 80.8983 40.6465 80.6523 40.5484V40.5492C80.5195 40.4945 67.3164 35.2054 60.0336 40.3703C56.4961 42.8789 54.8719 47.5382 55.2055 54.2211C55.3109 56.3273 56.643 63.839 58.9219 71.3046C61.5609 79.9507 64.5648 85.4078 67.1625 86.2734C67.5695 86.4101 68.8102 86.8234 70.5852 84.6906C73.9227 80.675 76.9891 77.4703 77.0195 77.4382C77.2062 77.2573 77.4558 77.1558 77.7158 77.1551C77.9758 77.1544 78.2259 77.2544 78.4137 77.4343C78.6014 77.6141 78.7121 77.8597 78.7225 78.1195C78.733 78.3793 78.6423 78.633 78.4695 78.8273C78.4391 78.8586 75.4195 82.0156 72.1289 85.9742C70.5703 87.8476 69.0758 88.3976 67.8586 88.3976ZM111.546 79.9375C111.364 79.9377 111.185 79.8883 111.029 79.7945C110.872 79.7007 110.744 79.5661 110.659 79.4051C110.573 79.2441 110.533 79.0628 110.543 78.8808C110.553 78.6987 110.612 78.5228 110.714 78.3718C120.066 64.4937 123.349 47.7257 120.537 44.1335C116.998 39.6117 112.001 37.2492 105.684 37.114C101.007 37.0125 97.2891 38.207 96.682 38.4156L96.5297 38.4773C95.9188 38.6695 95.45 38.3343 95.2734 37.9429C95.1728 37.7187 95.1576 37.4654 95.2307 37.2307C95.3038 36.996 95.4602 36.7962 95.6703 36.6687L95.9406 36.5578L95.9273 36.5617L95.9414 36.557C96.9734 36.1796 100.748 35.0468 105.423 35.1007C112.413 35.1742 118.187 37.8703 122.12 42.8953C123.98 45.2734 123.984 50.7523 122.131 57.9265C120.242 65.2406 116.688 73.1023 112.38 79.4945C112.288 79.6313 112.164 79.7432 112.018 79.8205C111.873 79.8978 111.711 79.938 111.546 79.9375ZM112.023 86.3617C110.427 86.3617 108.995 86.1375 108.138 85.6234C107.257 85.0961 107.089 84.3781 107.067 83.9976C106.827 79.7757 109.156 79.0406 110.345 78.7054C110.179 78.4554 109.943 78.1609 109.7 77.857C109.007 76.9914 108.059 75.8054 107.327 74.032C107.213 73.7554 106.854 73.1109 106.438 72.3656C104.186 68.3273 99.5 59.9234 102.51 55.6195C103.904 53.6281 106.677 52.8445 110.765 53.282C109.563 49.6187 103.836 38.1585 90.25 37.9359C86.1633 37.8671 82.8117 39.1242 80.2938 41.6664C74.6555 47.3609 74.8602 57.664 74.8625 57.7664C74.8659 57.8981 74.8434 58.0293 74.7961 58.1524C74.7489 58.2755 74.6778 58.388 74.5871 58.4836C74.4963 58.5792 74.3876 58.656 74.2672 58.7096C74.1468 58.7633 74.0169 58.7926 73.8852 58.7961C73.7534 58.7995 73.6222 58.7769 73.4991 58.7297C73.3761 58.6824 73.2635 58.6114 73.1679 58.5206C73.0723 58.4299 72.9955 58.3212 72.9419 58.2007C72.8883 58.0803 72.8589 57.9505 72.8555 57.8187C72.843 57.3617 72.632 46.55 78.8672 40.2531C81.7852 37.3062 85.6258 35.8515 90.2828 35.9273C98.9766 36.0703 104.571 40.489 107.734 44.1718C111.181 48.1843 112.872 52.6109 113.011 54.0875C113.115 55.1859 112.327 55.4062 112.167 55.4382L111.805 55.4468C107.794 54.8046 105.22 55.25 104.156 56.771C101.866 60.0429 106.299 67.9921 108.192 71.3875C108.676 72.2531 109.024 72.8789 109.184 73.2656C109.805 74.7734 110.616 75.7867 111.268 76.6007C111.841 77.3171 112.338 77.9375 112.516 78.6671C112.598 78.8117 113.768 80.5414 120.709 79.1086C122.449 78.75 123.492 79.057 123.811 80.0211C124.438 81.9187 120.919 84.1312 118.97 85.0367C117.222 85.8484 114.435 86.3617 112.023 86.3617ZM109.07 83.832C109.289 84.0546 110.391 84.4375 112.673 84.3398C114.701 84.2523 116.841 83.8109 118.125 83.2156C119.767 82.4531 120.863 81.6007 121.43 81.0187L121.115 81.0765C116.677 81.9929 113.538 81.8711 111.785 80.7132C111.667 80.6353 111.554 80.5511 111.445 80.4609C111.255 80.5359 111.08 80.5851 110.955 80.6203C109.96 80.8992 108.932 81.1875 109.07 83.832ZM80.4 89.4406C79.2977 89.4406 78.1375 89.2914 76.9523 88.9937C75.725 88.6867 73.6547 87.7625 73.6867 86.2445C73.7219 84.5406 76.1992 84.0296 77.1328 83.8375C80.5016 83.1437 80.7211 82.8656 81.7742 81.5289C82.0813 81.139 82.4633 80.6539 82.9836 80.0718C83.757 79.207 84.6023 78.7679 85.4961 78.7679C86.118 78.7679 86.6289 78.9796 86.9656 79.1187C88.0406 79.564 88.9375 80.6406 89.3063 81.9296C89.6391 83.0921 89.4805 84.2109 88.8594 85.0796C86.8219 87.9336 83.8969 89.4406 80.4 89.4406ZM75.8555 86.3312C76.1586 86.5648 76.7648 86.8773 77.4391 87.0468C78.4656 87.3031 79.4609 87.4336 80.4 87.4336C83.2609 87.4336 85.557 86.2484 87.2258 83.9132C87.5734 83.4257 87.4695 82.8078 87.3766 82.482C87.1813 81.8007 86.6969 81.1812 86.1977 80.9734C85.9266 80.8609 85.7023 80.775 85.4961 80.775C85.3852 80.775 85.0484 80.775 84.4805 81.4101C84.0008 81.9461 83.6563 82.3836 83.3508 82.7703C82.0398 84.4351 81.4391 85 77.5375 85.8039C76.5859 86.0007 76.0977 86.1992 75.8555 86.3312ZM83.5758 81.7C83.3361 81.6996 83.1045 81.6136 82.9227 81.4574C82.7409 81.3013 82.6209 81.0853 82.5844 80.8484C82.5587 80.6817 82.542 80.5138 82.5344 80.3453C79.9766 80.2968 77.5094 79.2 75.6367 77.2453C73.2688 74.7742 72.1906 71.3507 72.6797 67.8531C73.2109 64.0546 73.0125 60.7015 72.9055 58.9C72.8789 58.5294 72.8625 58.1582 72.8563 57.7867C72.8578 57.4695 72.8641 56.6265 75.6805 55.1992C76.682 54.6914 78.6906 53.8054 80.8844 53.5781C84.5203 53.2031 86.9164 54.8218 87.6336 58.1375C89.5695 67.0906 87.7867 71.0507 86.4852 73.9421C86.2422 74.4796 86.0133 74.989 85.8305 75.4812L85.6688 75.9164C84.9813 77.7601 84.3867 79.3531 84.5695 80.5437C84.6097 80.8069 84.5439 81.0753 84.3864 81.29C84.229 81.5047 83.9928 81.6482 83.7297 81.689L83.5758 81.7ZM74.8703 58.064L74.9102 58.7812C75.0211 60.6523 75.2273 64.1351 74.668 68.132C74.2648 71.0164 75.1461 73.8328 77.0859 75.857C78.6188 77.457 80.6375 78.3398 82.7117 78.3398H82.7547C82.9875 77.3609 83.3727 76.3281 83.7875 75.2148L83.9484 74.7828C84.1555 74.2265 84.3977 73.6882 84.6539 73.1187C85.907 70.3343 87.4664 66.8687 85.6703 58.5617C85.3141 56.9171 84.4516 55.9648 83.0336 55.6507C80.1211 55.007 75.7813 57.1976 74.8703 58.064ZM80.9297 57.6382C80.8797 57.9929 81.5805 58.9406 82.493 59.0671C83.4047 59.1945 84.1852 58.4539 84.2344 58.0992C84.2836 57.7445 83.5836 57.3531 82.6703 57.2257C81.7586 57.0984 80.9781 57.2828 80.9297 57.6382ZM82.7031 59.4171L82.4469 59.3992C81.8805 59.3203 81.3078 58.9632 80.9164 58.4437C80.7789 58.2617 80.5539 57.907 80.5984 57.5914C80.6625 57.1281 81.2266 56.8515 82.1086 56.8515C82.307 56.8515 82.5102 56.8658 82.718 56.8945C83.1992 56.9617 83.6469 57.1007 83.9773 57.2851C84.55 57.6054 84.5922 57.9617 84.5664 58.1468C84.4953 58.657 83.6813 59.4171 82.7031 59.4171ZM81.2625 57.6976C81.2914 57.9164 81.8328 58.639 82.5391 58.7367L82.7023 58.7484C83.3539 58.7484 83.8414 58.2351 83.8984 58.0671C83.8383 57.9531 83.4195 57.6679 82.6242 57.5586C82.4531 57.5346 82.2806 57.5221 82.1078 57.5211C81.5984 57.5203 81.3258 57.6351 81.2625 57.6976ZM108.701 56.914C108.75 57.2695 108.051 58.2171 107.137 58.3437C106.225 58.4703 105.445 57.7304 105.395 57.375C105.346 57.0203 106.046 56.6289 106.959 56.5023C107.871 56.3742 108.651 56.5601 108.701 56.914ZM106.927 58.525C106.048 58.525 105.291 57.8414 105.229 57.3984C105.157 56.8664 106.033 56.4617 106.936 56.3367C107.135 56.3085 107.33 56.2945 107.521 56.2945C108.3 56.2945 108.816 56.5234 108.867 56.8914C108.901 57.1304 108.718 57.4984 108.402 57.8296C108.195 58.0484 107.757 58.4273 107.162 58.5093L106.927 58.525ZM107.52 56.6289C107.345 56.6289 107.166 56.6416 106.981 56.6671C106.073 56.7929 105.534 57.1578 105.559 57.3531C105.59 57.5671 106.169 58.1906 106.927 58.1906L107.113 58.1773C107.609 58.1078 107.98 57.7851 108.158 57.5984C108.436 57.3054 108.547 57.0304 108.534 56.9359C108.517 56.8132 108.183 56.6289 107.52 56.6289ZM110.016 77.2953C109.834 77.2952 109.655 77.2457 109.499 77.1521C109.344 77.0585 109.216 76.9243 109.13 76.7639C109.045 76.6035 109.004 76.4228 109.014 76.2412C109.023 76.0596 109.081 75.8839 109.182 75.7328C111.32 72.5398 110.928 69.2828 110.55 66.1343C110.388 64.7921 110.222 63.4054 110.266 62.0734C110.309 60.7039 110.483 59.5742 110.652 58.4804C110.851 57.1859 111.039 55.9617 110.961 54.5101C110.955 54.2492 111.051 53.9964 111.229 53.805C111.406 53.6136 111.651 53.4988 111.911 53.4848C112.172 53.4708 112.428 53.5587 112.625 53.7299C112.822 53.9012 112.944 54.1423 112.966 54.4023C113.055 56.0617 112.842 57.4461 112.636 58.7859C112.477 59.8195 112.312 60.8882 112.272 62.1375C112.234 63.3164 112.384 64.5687 112.544 65.8937C112.947 69.2429 113.402 73.039 110.851 76.8492C110.657 77.1382 110.339 77.2953 110.016 77.2953Z" fill="white"/>
<path d="M42.2148 110.612C43.3365 110.43 44.4714 110.341 45.6078 110.348C47.3539 110.348 48.6344 110.755 49.4469 111.486C50.1984 112.136 50.6453 113.131 50.6453 114.351C50.6453 115.59 50.2789 116.565 49.5883 117.276C48.6539 118.271 47.1305 118.779 45.4039 118.779C44.8758 118.779 44.3883 118.759 43.9828 118.657V124.142H42.2148V110.612ZM43.9828 117.214C44.3688 117.316 44.8562 117.356 45.4453 117.356C47.5773 117.356 48.8781 116.32 48.8781 114.431C48.8781 112.623 47.5984 111.75 45.6484 111.75C44.8766 111.75 44.2875 111.811 43.9828 111.892V117.214ZM61.35 119.144C61.35 122.78 58.8305 124.365 56.4539 124.365C53.793 124.365 51.7414 122.415 51.7414 119.306C51.7414 116.016 53.8945 114.086 56.6164 114.086C59.4406 114.085 61.35 116.137 61.35 119.144ZM53.55 119.245C53.55 121.398 54.7891 123.023 56.5359 123.023C58.2422 123.023 59.5211 121.419 59.5211 119.205C59.5211 117.539 58.6891 115.427 56.5758 115.427C54.4625 115.427 53.55 117.377 53.55 119.245ZM63.3602 122.312C63.8883 122.658 64.8227 123.023 65.7164 123.023C67.0164 123.023 67.6258 122.373 67.6258 121.561C67.6258 120.708 67.1188 120.241 65.7977 119.753C64.0305 119.123 63.1977 118.148 63.1977 116.97C63.1977 115.386 64.4773 114.086 66.5898 114.086C67.5852 114.086 68.4594 114.37 69.0078 114.695L68.5609 115.995C67.9563 115.623 67.2601 115.426 66.55 115.427C65.4938 115.427 64.9047 116.036 64.9047 116.767C64.9047 117.58 65.4945 117.945 66.7742 118.433C68.4805 119.083 69.3539 119.936 69.3539 121.398C69.3539 123.125 68.0133 124.344 65.6773 124.344C64.6008 124.344 63.6055 124.08 62.9148 123.673L63.3602 122.312ZM73.8016 111.485V114.309H76.3602V115.67H73.8016V120.971C73.8016 122.19 74.1461 122.88 75.1422 122.88C75.4914 122.886 75.8398 122.845 76.1781 122.759L76.2594 124.099C75.9148 124.241 75.3656 124.343 74.6758 124.343C73.843 124.343 73.1719 124.079 72.7453 123.591C72.2383 123.063 72.0547 122.19 72.0547 121.032V115.67H70.5313V114.309H72.0547V111.952L73.8016 111.485ZM86.7203 114.309C86.6789 115.02 86.6391 115.812 86.6391 117.011V122.719C86.6391 124.973 86.1922 126.355 85.2375 127.209C84.2828 128.102 82.9016 128.387 81.6625 128.387C80.4844 128.387 79.1844 128.102 78.3914 127.574L78.8383 126.213C79.4883 126.62 80.5039 126.985 81.7227 126.985C83.5508 126.985 84.8914 126.03 84.8914 123.552V122.455H84.8508C84.3023 123.37 83.2461 124.101 81.7227 124.101C79.2852 124.101 77.5383 122.029 77.5383 119.306C77.5383 115.975 79.7117 114.086 81.9664 114.086C83.6734 114.086 84.6078 114.98 85.0344 115.792H85.075L85.1562 114.309H86.7203ZM84.8719 118.189C84.8719 117.884 84.8516 117.62 84.7703 117.377C84.4453 116.341 83.5719 115.487 82.2719 115.487C80.5648 115.487 79.3469 116.93 79.3469 119.205C79.3469 121.134 80.3219 122.739 82.2516 122.739C83.3484 122.739 84.3438 122.048 84.7297 120.911C84.8313 120.606 84.8727 120.261 84.8727 119.956L84.8719 118.189ZM89.482 117.377C89.482 116.219 89.4617 115.223 89.4008 114.309H90.9656L91.0258 116.239H91.107C91.5539 114.919 92.6305 114.086 93.8289 114.086C94.032 114.086 94.1734 114.106 94.3359 114.147V115.833C94.1361 115.789 93.9319 115.769 93.7273 115.772C92.468 115.772 91.5734 116.727 91.3305 118.067C91.2802 118.342 91.253 118.621 91.2492 118.9V124.141H89.482V117.377ZM96.9172 119.55C96.9578 121.967 98.5008 122.962 100.288 122.962C101.569 122.962 102.34 122.739 103.01 122.455L103.315 123.734C102.685 124.019 101.609 124.344 100.045 124.344C97.018 124.344 95.2102 122.353 95.2102 119.387C95.2102 116.422 96.957 114.085 99.8211 114.085C103.03 114.085 103.884 116.909 103.884 118.716C103.884 119.082 103.843 119.366 103.823 119.549L96.9172 119.55ZM102.158 118.27C102.177 117.133 101.69 115.366 99.6797 115.366C97.8719 115.366 97.0797 117.031 96.9367 118.27H102.158Z" fill="black"/>
<path d="M105.915 121.988C106.872 122.563 107.966 122.872 109.084 122.881C110.891 122.881 111.948 121.927 111.948 120.545C111.948 119.266 111.216 118.534 109.368 117.823C107.134 117.031 105.752 115.873 105.752 113.944C105.752 111.811 107.52 110.227 110.18 110.227C111.582 110.227 112.598 110.552 113.207 110.897L112.72 112.339C111.92 111.91 111.027 111.687 110.12 111.689C108.251 111.689 107.54 112.806 107.54 113.741C107.54 115.02 108.372 115.65 110.262 116.381C112.577 117.276 113.755 118.392 113.755 120.403C113.755 122.516 112.191 124.344 108.962 124.344C107.641 124.344 106.199 123.958 105.467 123.47L105.915 121.988ZM127.466 126.152C125.701 125.688 123.953 125.16 122.226 124.567C121.941 124.466 121.657 124.364 121.393 124.364C118.143 124.242 115.36 121.845 115.36 117.437C115.36 113.05 118.041 110.227 121.738 110.227C125.455 110.227 127.873 113.111 127.873 117.153C127.873 120.667 126.248 122.922 123.973 123.714V123.795C125.334 124.141 126.817 124.466 127.975 124.669L127.466 126.152ZM126.004 117.234C126.004 114.492 124.583 111.668 121.677 111.668C118.691 111.668 117.229 114.43 117.249 117.397C117.229 120.302 118.834 122.922 121.596 122.922C124.42 122.922 126.004 120.363 126.004 117.234ZM130.167 110.45H131.935V122.658H137.785V124.141H130.167V110.45Z" fill="#336791"/>
</svg>
