<svg width="180" height="160" viewBox="0 0 180 160" fill="none" xmlns="http://www.w3.org/2000/svg">
<path d="M60.063 108.227H65.9468C67.2814 108.227 68.4085 108.43 69.3281 108.837C70.2559 109.244 70.9598 109.846 71.4399 110.644C71.9282 111.433 72.1724 112.405 72.1724 113.561C72.1724 114.375 72.0055 115.119 71.6719 115.795C71.3464 116.462 70.8743 117.032 70.2559 117.504C69.6455 117.968 68.9131 118.314 68.0586 118.542L67.3994 118.798H61.8696L61.8452 116.881H66.02C66.8664 116.881 67.5703 116.735 68.1318 116.442C68.6934 116.141 69.1165 115.738 69.4014 115.233C69.6862 114.729 69.8286 114.171 69.8286 113.561C69.8286 112.877 69.6943 112.279 69.4258 111.767C69.1572 111.254 68.734 110.859 68.1562 110.583C67.5866 110.298 66.8501 110.155 65.9468 110.155H62.4189V126H60.063V108.227ZM70.4512 126L66.1299 117.943L68.5835 117.931L72.9658 125.854V126H70.4512ZM80.6074 126.244C79.6878 126.244 78.8537 126.09 78.105 125.78C77.3644 125.463 76.7256 125.019 76.1885 124.45C75.6595 123.88 75.2526 123.205 74.9678 122.423C74.6829 121.642 74.5405 120.788 74.5405 119.86V119.347C74.5405 118.273 74.6992 117.317 75.0166 116.479C75.334 115.632 75.7653 114.916 76.3105 114.33C76.8558 113.744 77.4743 113.301 78.166 113C78.8577 112.698 79.5739 112.548 80.3145 112.548C81.2585 112.548 82.0723 112.711 82.7559 113.036C83.4476 113.362 84.0132 113.817 84.4526 114.403C84.8921 114.981 85.2176 115.665 85.4292 116.454C85.6408 117.235 85.7466 118.09 85.7466 119.018V120.031H75.8833V118.188H83.4883V118.017C83.4557 117.431 83.3337 116.861 83.1221 116.308C82.9186 115.754 82.5931 115.299 82.1455 114.94C81.6979 114.582 81.0876 114.403 80.3145 114.403C79.8018 114.403 79.3298 114.513 78.8984 114.733C78.4671 114.944 78.0968 115.262 77.7876 115.685C77.4784 116.108 77.2383 116.625 77.0674 117.235C76.8965 117.846 76.811 118.55 76.811 119.347V119.86C76.811 120.486 76.8965 121.076 77.0674 121.63C77.2464 122.175 77.5028 122.655 77.8364 123.07C78.1782 123.485 78.5892 123.811 79.0693 124.047C79.5576 124.283 80.111 124.401 80.7295 124.401C81.527 124.401 82.2025 124.238 82.7559 123.913C83.3092 123.587 83.7935 123.152 84.2085 122.606L85.5757 123.693C85.2909 124.124 84.9287 124.535 84.4893 124.926C84.0498 125.316 83.5086 125.634 82.8657 125.878C82.231 126.122 81.4782 126.244 80.6074 126.244ZM96.1714 123.742V116.942C96.1714 116.422 96.0656 115.97 95.854 115.587C95.6506 115.197 95.3413 114.896 94.9263 114.684C94.5112 114.472 93.9985 114.367 93.3882 114.367C92.8185 114.367 92.318 114.464 91.8867 114.66C91.4635 114.855 91.1299 115.111 90.8857 115.429C90.6497 115.746 90.5317 116.088 90.5317 116.454H88.2734C88.2734 115.982 88.3955 115.514 88.6396 115.05C88.8838 114.586 89.2337 114.167 89.6895 113.793C90.1533 113.41 90.7067 113.109 91.3496 112.89C92.0007 112.662 92.7249 112.548 93.5225 112.548C94.4827 112.548 95.3291 112.711 96.0615 113.036C96.8021 113.362 97.3799 113.854 97.7949 114.513C98.2181 115.164 98.4297 115.982 98.4297 116.967V123.119C98.4297 123.559 98.4663 124.027 98.5396 124.523C98.6209 125.019 98.7389 125.447 98.8936 125.805V126H96.5376C96.4237 125.74 96.3341 125.394 96.269 124.962C96.2039 124.523 96.1714 124.116 96.1714 123.742ZM96.562 117.992L96.5864 119.579H94.3037C93.6608 119.579 93.0871 119.632 92.5825 119.738C92.078 119.835 91.6548 119.986 91.313 120.189C90.9712 120.393 90.7108 120.649 90.5317 120.958C90.3527 121.26 90.2632 121.614 90.2632 122.021C90.2632 122.436 90.3568 122.814 90.5439 123.156C90.7311 123.498 91.0119 123.77 91.3862 123.974C91.7687 124.169 92.2367 124.267 92.79 124.267C93.4818 124.267 94.0921 124.12 94.6211 123.827C95.1501 123.534 95.5692 123.176 95.8784 122.753C96.1958 122.33 96.3667 121.919 96.3911 121.52L97.3555 122.606C97.2985 122.948 97.1439 123.327 96.8916 123.742C96.6393 124.157 96.3016 124.556 95.8784 124.938C95.4634 125.312 94.967 125.626 94.3892 125.878C93.8195 126.122 93.1766 126.244 92.4604 126.244C91.5653 126.244 90.7799 126.069 90.1045 125.719C89.4372 125.369 88.9163 124.901 88.542 124.315C88.1758 123.721 87.9927 123.058 87.9927 122.326C87.9927 121.618 88.131 120.995 88.4077 120.458C88.6844 119.913 89.0832 119.461 89.604 119.103C90.1248 118.737 90.7515 118.46 91.4839 118.273C92.2163 118.086 93.0342 117.992 93.9375 117.992H96.562ZM107.268 124.389C107.805 124.389 108.301 124.279 108.757 124.059C109.213 123.839 109.587 123.538 109.88 123.156C110.173 122.765 110.34 122.322 110.38 121.825H112.529C112.488 122.606 112.224 123.335 111.735 124.01C111.255 124.678 110.625 125.219 109.843 125.634C109.062 126.041 108.203 126.244 107.268 126.244C106.275 126.244 105.408 126.069 104.667 125.719C103.935 125.369 103.325 124.889 102.836 124.279C102.356 123.668 101.994 122.969 101.75 122.179C101.514 121.382 101.396 120.539 101.396 119.652V119.14C101.396 118.253 101.514 117.414 101.75 116.625C101.994 115.827 102.356 115.124 102.836 114.513C103.325 113.903 103.935 113.423 104.667 113.073C105.408 112.723 106.275 112.548 107.268 112.548C108.301 112.548 109.204 112.759 109.978 113.183C110.751 113.598 111.357 114.167 111.796 114.892C112.244 115.608 112.488 116.422 112.529 117.333H110.38C110.34 116.788 110.185 116.295 109.917 115.856C109.656 115.417 109.298 115.067 108.842 114.806C108.395 114.538 107.87 114.403 107.268 114.403C106.576 114.403 105.994 114.542 105.522 114.818C105.058 115.087 104.688 115.453 104.411 115.917C104.143 116.373 103.947 116.881 103.825 117.443C103.711 117.996 103.654 118.562 103.654 119.14V119.652C103.654 120.23 103.711 120.8 103.825 121.361C103.939 121.923 104.13 122.431 104.399 122.887C104.676 123.343 105.046 123.709 105.51 123.986C105.982 124.254 106.568 124.389 107.268 124.389ZM120.598 112.792V114.525H113.457V112.792H120.598ZM115.874 109.582H118.132V122.729C118.132 123.176 118.201 123.514 118.339 123.742C118.478 123.97 118.657 124.12 118.876 124.193C119.096 124.267 119.332 124.303 119.584 124.303C119.772 124.303 119.967 124.287 120.17 124.254C120.382 124.214 120.541 124.181 120.646 124.157L120.659 126C120.48 126.057 120.244 126.11 119.951 126.159C119.666 126.216 119.32 126.244 118.913 126.244C118.36 126.244 117.851 126.134 117.387 125.915C116.923 125.695 116.553 125.329 116.276 124.816C116.008 124.295 115.874 123.595 115.874 122.716V109.582Z" fill="#03C1E5"/>
<g clip-path="url(#clip0_42_53)">
<path d="M112.43 47.0749C111.689 46.8208 110.942 46.5853 110.189 46.3687C110.315 45.852 110.432 45.3416 110.535 44.8402C112.231 36.6059 111.122 29.9721 107.335 27.788C103.703 25.6941 97.7639 27.8775 91.7656 33.0977C91.1745 33.6131 90.5964 34.1433 90.0321 34.688C89.6543 34.3258 89.2698 33.9707 88.8788 33.6228C82.5924 28.0412 76.2912 25.6887 72.5076 27.8791C68.8792 29.9795 67.8048 36.2157 69.332 44.0195C69.4839 44.7924 69.6555 45.5613 69.8465 46.3255C68.9545 46.5789 68.0939 46.8487 67.2702 47.1358C59.8998 49.7055 55.193 53.7326 55.193 57.9097C55.193 62.2238 60.246 66.5511 67.9226 69.1749C68.5449 69.3867 69.1725 69.583 69.8046 69.7636C69.5994 70.5867 69.4171 71.4153 69.258 72.2485C67.8021 79.917 68.939 86.0057 72.5576 88.0928C76.295 90.2481 82.5679 88.033 88.6757 82.6936C89.1709 82.2595 89.6553 81.8131 90.1283 81.3549C90.7395 81.9446 91.367 82.5172 92.0101 83.0719C97.9268 88.163 103.77 90.2187 107.385 88.126C111.119 85.9644 112.333 79.4234 110.757 71.4654C110.633 70.8419 110.494 70.2216 110.34 69.6048C110.78 69.4743 111.212 69.34 111.634 69.2002C119.615 66.5562 124.807 62.2815 124.807 57.9097C124.807 53.7173 119.948 49.6631 112.43 47.0749ZM110.699 66.3776C110.318 66.5034 109.928 66.6253 109.529 66.7433C108.648 63.9541 107.46 60.9885 106.004 57.9241C107.393 54.9329 108.536 52.005 109.392 49.234C110.105 49.4401 110.796 49.6574 111.462 49.8867C117.904 52.1045 121.833 55.3832 121.833 57.9097C121.833 60.6007 117.589 64.0942 110.699 66.3776ZM107.84 72.043C108.536 75.5617 108.636 78.7433 108.174 81.2306C107.76 83.4656 106.926 84.9555 105.895 85.5524C103.701 86.8223 99.0096 85.1717 93.9498 80.8176C93.3517 80.3018 92.768 79.7695 92.1994 79.2214C94.1611 77.0761 96.1214 74.5822 98.0347 71.8124C101.4 71.5138 104.58 71.0254 107.463 70.3589C107.605 70.9321 107.731 71.4935 107.84 72.043ZM78.9259 85.333C76.7826 86.0898 75.0754 86.1115 74.0434 85.5165C71.8476 84.2502 70.9347 79.3611 72.1799 72.8033C72.3279 72.0283 72.4974 71.2577 72.6881 70.4921C75.5396 71.123 78.6959 71.5766 82.0692 71.8502C83.9955 74.5605 86.0124 77.0516 88.0451 79.2331C87.6131 79.651 87.1709 80.0583 86.7189 80.4546C84.0178 82.8155 81.3113 84.4905 78.9259 85.333ZM68.8846 66.361C65.4901 65.2007 62.6868 63.6928 60.7654 62.0474C59.0386 60.5689 58.1671 59.1007 58.1671 57.9097C58.1671 55.3747 61.9461 52.1415 68.2491 49.944C69.0141 49.6775 69.8146 49.426 70.6454 49.19C71.5167 52.0235 72.6593 54.9862 74.0383 57.982C72.6414 61.0222 71.4824 64.0322 70.6027 66.8991C70.0257 66.7338 69.4528 66.5544 68.8846 66.361ZM72.2506 43.4482C70.9423 36.7622 71.8112 31.7188 73.9977 30.4529C76.3265 29.1047 81.4764 31.027 86.9043 35.8466C87.2583 36.1616 87.6065 36.483 87.9488 36.8106C85.9262 38.9825 83.9278 41.4552 82.0186 44.1495C78.7445 44.453 75.6106 44.9403 72.7292 45.5932C72.5516 44.8824 72.392 44.167 72.2506 43.4482ZM102.279 50.8634C101.598 49.6879 100.893 48.5271 100.162 47.3819C102.383 47.6628 104.511 48.0356 106.51 48.4914C105.91 50.4145 105.162 52.4248 104.282 54.4861C103.638 53.2653 102.971 52.0575 102.279 50.8634ZM90.0334 38.9363C91.4051 40.4224 92.7788 42.0815 94.1301 43.8816C91.389 43.7522 88.6434 43.7516 85.9023 43.88C87.2549 42.0964 88.6403 40.4395 90.0334 38.9363ZM77.7093 50.8836C77.0263 52.068 76.371 53.2683 75.7441 54.4834C74.8783 52.4295 74.1372 50.4098 73.5322 48.4596C75.5184 48.0152 77.6364 47.6519 79.8434 47.3762C79.1047 48.5284 78.3932 49.698 77.7093 50.8836ZM79.9068 68.6544C77.6266 68.3999 75.4768 68.0554 73.4911 67.623C74.1057 65.6379 74.863 63.5753 75.7476 61.4774C76.3771 62.6934 77.035 63.8944 77.721 65.0794C78.4264 66.2976 79.1568 67.4908 79.9068 68.6544ZM90.1156 77.0924C88.7059 75.5718 87.3 73.8894 85.927 72.0799C87.26 72.1321 88.6189 72.1588 90 72.1588C91.4189 72.1588 92.8215 72.127 94.2021 72.0655C92.8466 73.9076 91.4779 75.5925 90.1156 77.0924ZM104.31 61.3703C105.24 63.4913 106.025 65.543 106.647 67.4941C104.629 67.9548 102.45 68.3257 100.154 68.6011C100.889 67.4347 101.602 66.2538 102.291 65.059C102.991 63.8446 103.664 62.6147 104.31 61.3703ZM99.7147 63.5732C98.6601 65.4049 97.5463 67.202 96.3751 68.9614C94.2534 69.1118 92.127 69.1865 90 69.1852C87.8335 69.1852 85.7263 69.1178 83.6972 68.9862C82.4953 67.2309 81.3603 65.4307 80.2945 63.5895C79.2337 61.7581 78.2432 59.887 77.3245 57.9804C78.2409 56.0733 79.2287 54.2013 80.2858 52.3686L80.2856 52.3688C81.3422 50.5355 82.4682 48.743 83.661 46.9952C85.7312 46.8386 87.8542 46.757 89.9997 46.757C92.155 46.757 94.281 46.8394 96.3506 46.9971C97.5315 48.7423 98.6502 50.5286 99.7049 52.3528C100.765 54.1816 101.766 56.0444 102.706 57.9382C101.776 59.8514 100.778 61.7309 99.7147 63.5732ZM105.849 30.364C108.18 31.7084 109.087 37.1299 107.622 44.2395C107.528 44.6934 107.424 45.1548 107.31 45.6236C104.421 44.9568 101.285 44.4611 98.0015 44.153C96.0888 41.4291 94.1067 38.9526 92.117 36.8087C92.6385 36.3061 93.1723 35.8165 93.7181 35.3403C98.8576 30.8679 103.661 29.102 105.849 30.364ZM90 51.6934C93.4331 51.6934 96.2163 54.4766 96.2163 57.9097C96.2163 61.3428 93.4331 64.126 90 64.126C86.5669 64.126 83.7837 61.3428 83.7837 57.9097C83.7837 54.4766 86.5669 51.6934 90 51.6934Z" fill="#00D8FF"/>
</g>
<defs>
<clipPath id="clip0_42_53">
<rect width="69.614" height="62" fill="white" transform="translate(55.193 27)"/>
</clipPath>
</defs>
</svg>
