<svg width="180" height="160" viewBox="0 0 180 160" fill="none" xmlns="http://www.w3.org/2000/svg">
<g clip-path="url(#clip0_42_116)">
<path d="M119.233 60.765L107.407 40.3025C106.382 38.5275 103.865 37.0675 101.807 37.0675H78.1825C76.1325 37.0675 73.605 38.5275 72.5825 40.3025L60.765 60.765C59.74 62.54 59.74 65.4475 60.765 67.225L72.5775 87.6975C73.6025 89.4725 76.12 90.9325 78.1775 90.9325H101.815C103.865 90.9325 106.38 89.4725 107.415 87.6975L119.23 67.2225C120.255 65.4475 120.255 62.54 119.23 60.765H119.233ZM87.44 48.3875C87.44 47.045 88.535 45.95 89.875 45.95C91.215 45.95 92.3125 47.045 92.3125 48.3875V62.94C92.2728 63.5588 91.999 64.1393 91.5467 64.5636C91.0944 64.9878 90.4976 65.2239 89.8775 65.2239C89.2574 65.2239 88.6606 64.9878 88.2083 64.5636C87.756 64.1393 87.4822 63.5588 87.4425 62.94L87.44 48.3875ZM89.875 79.4625C85.4952 79.4566 81.2967 77.7137 78.2002 74.6163C75.1037 71.5189 73.3621 67.3198 73.3575 62.94C73.3638 60.364 73.9695 57.8248 75.1268 55.5233C76.284 53.2219 77.961 51.2213 80.025 49.68C80.2536 49.5097 80.5136 49.3862 80.7901 49.3166C81.0665 49.2471 81.354 49.2328 81.636 49.2746C81.918 49.3164 82.1889 49.4135 82.4333 49.5603C82.6777 49.7071 82.8906 49.9007 83.06 50.13C83.2302 50.3582 83.3537 50.6178 83.4234 50.8938C83.4932 51.1698 83.5078 51.4569 83.4665 51.7386C83.4251 52.0202 83.3287 52.291 83.1826 52.5353C83.0364 52.7797 82.8436 52.9928 82.615 53.1625C80.1105 55.1219 78.4708 57.9824 78.0457 61.1337C77.6206 64.285 78.4437 67.4777 80.3394 70.0307C82.2352 72.5836 85.0535 74.2948 88.1931 74.7991C91.3327 75.3034 94.5451 74.5609 97.145 72.73C98.6712 71.5945 99.9106 70.1179 100.764 68.418C101.618 66.7182 102.063 64.8422 102.062 62.94C102.057 61.0306 101.605 59.149 100.743 57.4453C99.8809 55.7416 98.6326 54.263 97.0975 53.1275C96.6354 52.7849 96.3278 52.2733 96.2421 51.7045C96.1564 51.1357 96.2994 50.5561 96.64 50.0925C96.9826 49.6304 97.4942 49.3228 98.063 49.2371C98.6318 49.1514 99.2114 49.2944 99.675 49.635C101.756 51.1743 103.447 53.1794 104.614 55.4899C105.78 57.8003 106.389 60.3518 106.392 62.94C106.389 67.3204 104.648 71.5204 101.55 74.6178C98.4529 77.7151 94.2529 79.4567 89.8725 79.46" fill="#03B11D"/>
</g>
<path d="M28.2363 119.057V109.492H30.0176V119.057C30.0176 119.948 29.8351 120.699 29.4702 121.312C29.1053 121.924 28.6012 122.391 27.958 122.712C27.321 123.028 26.5881 123.186 25.7593 123.186C24.9305 123.186 24.1945 123.043 23.5513 122.759C22.908 122.474 22.404 122.041 22.0391 121.46C21.6742 120.879 21.4917 120.146 21.4917 119.261H23.2822C23.2822 119.83 23.3874 120.297 23.5977 120.662C23.8079 121.027 24.0986 121.296 24.4697 121.469C24.847 121.642 25.2769 121.729 25.7593 121.729C26.2293 121.729 26.6499 121.63 27.021 121.432C27.3983 121.228 27.6951 120.928 27.9116 120.532C28.1281 120.13 28.2363 119.639 28.2363 119.057ZM38.7104 121.284V116.116C38.7104 115.72 38.63 115.377 38.4692 115.086C38.3146 114.79 38.0796 114.561 37.7642 114.4C37.4487 114.239 37.0591 114.159 36.5952 114.159C36.1623 114.159 35.7819 114.233 35.4541 114.381C35.1325 114.53 34.8789 114.725 34.6934 114.966C34.514 115.207 34.4243 115.467 34.4243 115.745H32.708C32.708 115.386 32.8008 115.031 32.9863 114.678C33.1719 114.326 33.4378 114.007 33.7842 113.723C34.1367 113.432 34.5573 113.203 35.0459 113.036C35.5407 112.863 36.0911 112.776 36.6973 112.776C37.4271 112.776 38.0703 112.9 38.627 113.147C39.1898 113.395 39.6289 113.769 39.9443 114.27C40.266 114.765 40.4268 115.386 40.4268 116.135V120.811C40.4268 121.145 40.4546 121.5 40.5103 121.877C40.5721 122.255 40.6618 122.579 40.7793 122.852V123H38.9888C38.9022 122.802 38.8341 122.539 38.7847 122.211C38.7352 121.877 38.7104 121.568 38.7104 121.284ZM39.0073 116.914L39.0259 118.12H37.291C36.8024 118.12 36.3664 118.16 35.9829 118.241C35.5994 118.315 35.2778 118.429 35.0181 118.584C34.7583 118.739 34.5604 118.933 34.4243 119.168C34.2882 119.397 34.2202 119.666 34.2202 119.976C34.2202 120.291 34.2913 120.579 34.4336 120.838C34.5758 121.098 34.7892 121.305 35.0737 121.46C35.3644 121.608 35.7201 121.683 36.1406 121.683C36.6663 121.683 37.1302 121.571 37.5322 121.349C37.9342 121.126 38.2528 120.854 38.4878 120.532C38.729 120.211 38.8589 119.898 38.8774 119.595L39.6104 120.421C39.5671 120.681 39.4495 120.968 39.2578 121.284C39.0661 121.599 38.8094 121.902 38.4878 122.193C38.1724 122.477 37.7951 122.715 37.356 122.907C36.923 123.093 36.4344 123.186 35.8901 123.186C35.2098 123.186 34.613 123.053 34.0996 122.787C33.5924 122.521 33.1966 122.165 32.9121 121.72C32.6338 121.268 32.4946 120.764 32.4946 120.208C32.4946 119.669 32.5998 119.196 32.8101 118.788C33.0203 118.374 33.3234 118.03 33.7192 117.758C34.1151 117.48 34.5913 117.27 35.1479 117.127C35.7046 116.985 36.3262 116.914 37.0127 116.914H39.0073ZM46.0303 121.451L48.7764 112.962H50.5298L46.9209 123H45.7705L46.0303 121.451ZM43.7388 112.962L46.5684 121.497L46.7632 123H45.6128L41.9761 112.962H43.7388ZM57.9517 121.284V116.116C57.9517 115.72 57.8713 115.377 57.7104 115.086C57.5558 114.79 57.3208 114.561 57.0054 114.4C56.6899 114.239 56.3003 114.159 55.8364 114.159C55.4035 114.159 55.0231 114.233 54.6953 114.381C54.3737 114.53 54.1201 114.725 53.9346 114.966C53.7552 115.207 53.6655 115.467 53.6655 115.745H51.9492C51.9492 115.386 52.042 115.031 52.2275 114.678C52.4131 114.326 52.679 114.007 53.0254 113.723C53.3779 113.432 53.7985 113.203 54.2871 113.036C54.7819 112.863 55.3324 112.776 55.9385 112.776C56.6683 112.776 57.3115 112.9 57.8682 113.147C58.431 113.395 58.8701 113.769 59.1855 114.27C59.5072 114.765 59.668 115.386 59.668 116.135V120.811C59.668 121.145 59.6958 121.5 59.7515 121.877C59.8133 122.255 59.903 122.579 60.0205 122.852V123H58.23C58.1434 122.802 58.0754 122.539 58.0259 122.211C57.9764 121.877 57.9517 121.568 57.9517 121.284ZM58.2485 116.914L58.2671 118.12H56.5322C56.0436 118.12 55.6076 118.16 55.2241 118.241C54.8407 118.315 54.519 118.429 54.2593 118.584C53.9995 118.739 53.8016 118.933 53.6655 119.168C53.5295 119.397 53.4614 119.666 53.4614 119.976C53.4614 120.291 53.5326 120.579 53.6748 120.838C53.8171 121.098 54.0304 121.305 54.3149 121.46C54.6056 121.608 54.9613 121.683 55.3818 121.683C55.9076 121.683 56.3714 121.571 56.7734 121.349C57.1755 121.126 57.494 120.854 57.729 120.532C57.9702 120.211 58.1001 119.898 58.1187 119.595L58.8516 120.421C58.8083 120.681 58.6908 120.968 58.499 121.284C58.3073 121.599 58.0506 121.902 57.729 122.193C57.4136 122.477 57.0363 122.715 56.5972 122.907C56.1642 123.093 55.6756 123.186 55.1313 123.186C54.451 123.186 53.8542 123.053 53.3408 122.787C52.8337 122.521 52.4378 122.165 52.1533 121.72C51.875 121.268 51.7358 120.764 51.7358 120.208C51.7358 119.669 51.841 119.196 52.0513 118.788C52.2616 118.374 52.5646 118.03 52.9604 117.758C53.3563 117.48 53.8325 117.27 54.3892 117.127C54.9458 116.985 55.5674 116.914 56.2539 116.914H58.2485ZM74.5396 119.586C74.5396 119.271 74.4901 118.992 74.3911 118.751C74.2983 118.504 74.1313 118.281 73.8901 118.083C73.6551 117.885 73.3273 117.696 72.9067 117.517C72.4924 117.338 71.9666 117.155 71.3296 116.97C70.6616 116.772 70.0586 116.552 69.5205 116.311C68.9824 116.064 68.5216 115.782 68.1382 115.467C67.7547 115.151 67.4609 114.79 67.2568 114.381C67.0527 113.973 66.9507 113.506 66.9507 112.98C66.9507 112.455 67.0589 111.969 67.2754 111.524C67.4919 111.079 67.8011 110.692 68.2031 110.364C68.6113 110.03 69.0968 109.771 69.6597 109.585C70.2225 109.399 70.8503 109.307 71.543 109.307C72.5573 109.307 73.417 109.501 74.1221 109.891C74.8333 110.275 75.3745 110.779 75.7456 111.403C76.1167 112.022 76.3022 112.684 76.3022 113.389H74.521C74.521 112.882 74.4128 112.433 74.1963 112.043C73.9798 111.648 73.652 111.338 73.2129 111.116C72.7738 110.887 72.2171 110.772 71.543 110.772C70.9059 110.772 70.3802 110.868 69.9658 111.06C69.5514 111.252 69.2422 111.512 69.0381 111.839C68.8402 112.167 68.7412 112.541 68.7412 112.962C68.7412 113.246 68.8 113.506 68.9175 113.741C69.0412 113.97 69.2298 114.183 69.4834 114.381C69.7432 114.579 70.071 114.762 70.4668 114.929C70.8688 115.096 71.3481 115.257 71.9048 115.411C72.6717 115.628 73.3335 115.869 73.8901 116.135C74.4468 116.401 74.9045 116.701 75.2632 117.035C75.6281 117.362 75.8971 117.737 76.0703 118.157C76.2497 118.572 76.3394 119.042 76.3394 119.567C76.3394 120.118 76.228 120.616 76.0054 121.061C75.7827 121.506 75.4642 121.887 75.0498 122.202C74.6354 122.518 74.1375 122.762 73.5562 122.935C72.981 123.102 72.3377 123.186 71.6265 123.186C71.0018 123.186 70.3864 123.099 69.7803 122.926C69.1803 122.753 68.633 122.493 68.1382 122.146C67.6496 121.8 67.2568 121.373 66.96 120.866C66.6693 120.353 66.5239 119.759 66.5239 119.085H68.3052C68.3052 119.549 68.3949 119.948 68.5742 120.282C68.7536 120.61 68.9979 120.882 69.3071 121.098C69.6226 121.315 69.9782 121.475 70.374 121.581C70.776 121.68 71.1935 121.729 71.6265 121.729C72.2511 121.729 72.7799 121.642 73.2129 121.469C73.6458 121.296 73.9736 121.049 74.1963 120.727C74.4251 120.405 74.5396 120.025 74.5396 119.586ZM80.0781 114.892V126.859H78.3525V112.962H79.9297L80.0781 114.892ZM86.8413 117.897V118.092C86.8413 118.822 86.7547 119.499 86.5815 120.124C86.4084 120.743 86.1548 121.281 85.8208 121.738C85.493 122.196 85.0879 122.552 84.6055 122.805C84.123 123.059 83.5695 123.186 82.9448 123.186C82.3078 123.186 81.745 123.08 81.2563 122.87C80.7677 122.66 80.3534 122.354 80.0132 121.952C79.673 121.55 79.4009 121.067 79.1968 120.504C78.9989 119.942 78.8628 119.308 78.7886 118.603V117.563C78.8628 116.821 79.002 116.156 79.2061 115.569C79.4102 114.981 79.6792 114.48 80.0132 114.066C80.3534 113.645 80.7646 113.327 81.2471 113.11C81.7295 112.888 82.2861 112.776 82.917 112.776C83.5479 112.776 84.1076 112.9 84.5962 113.147C85.0848 113.389 85.4961 113.735 85.8301 114.187C86.1641 114.638 86.4146 115.179 86.5815 115.81C86.7547 116.435 86.8413 117.131 86.8413 117.897ZM85.1157 118.092V117.897C85.1157 117.396 85.0632 116.926 84.958 116.487C84.8529 116.042 84.689 115.652 84.4663 115.318C84.2498 114.978 83.9715 114.712 83.6313 114.521C83.2912 114.323 82.8861 114.224 82.416 114.224C81.9831 114.224 81.6058 114.298 81.2842 114.446C80.9688 114.595 80.6997 114.796 80.4771 115.049C80.2544 115.297 80.0719 115.581 79.9297 115.903C79.7936 116.218 79.6916 116.546 79.6235 116.886V119.289C79.7472 119.722 79.9204 120.13 80.1431 120.514C80.3657 120.891 80.6626 121.197 81.0337 121.432C81.4048 121.661 81.8717 121.775 82.4346 121.775C82.8984 121.775 83.2974 121.68 83.6313 121.488C83.9715 121.29 84.2498 121.021 84.4663 120.681C84.689 120.34 84.8529 119.951 84.958 119.512C85.0632 119.066 85.1157 118.593 85.1157 118.092ZM90.7471 114.539V123H89.0308V112.962H90.7007L90.7471 114.539ZM93.8828 112.906L93.8735 114.502C93.7313 114.471 93.5952 114.452 93.4653 114.446C93.3416 114.434 93.1994 114.428 93.0386 114.428C92.6427 114.428 92.2933 114.49 91.9902 114.613C91.6872 114.737 91.4305 114.91 91.2202 115.133C91.0099 115.355 90.8429 115.621 90.7192 115.931C90.6017 116.234 90.5244 116.568 90.4873 116.933L90.0049 117.211C90.0049 116.605 90.0636 116.036 90.1812 115.504C90.3049 114.972 90.4935 114.502 90.7471 114.094C91.0007 113.679 91.3223 113.358 91.7119 113.129C92.1077 112.894 92.5778 112.776 93.1221 112.776C93.2458 112.776 93.388 112.792 93.5488 112.823C93.7096 112.847 93.821 112.875 93.8828 112.906ZM97.334 112.962V123H95.6084V112.962H97.334ZM95.4785 110.299C95.4785 110.021 95.562 109.786 95.729 109.594C95.9022 109.403 96.1558 109.307 96.4897 109.307C96.8175 109.307 97.068 109.403 97.2412 109.594C97.4206 109.786 97.5103 110.021 97.5103 110.299C97.5103 110.565 97.4206 110.794 97.2412 110.986C97.068 111.171 96.8175 111.264 96.4897 111.264C96.1558 111.264 95.9022 111.171 95.729 110.986C95.562 110.794 95.4785 110.565 95.4785 110.299ZM101.806 115.105V123H100.089V112.962H101.713L101.806 115.105ZM101.397 117.601L100.683 117.573C100.689 116.886 100.791 116.252 100.989 115.671C101.187 115.083 101.465 114.573 101.824 114.14C102.183 113.707 102.61 113.373 103.104 113.138C103.605 112.897 104.159 112.776 104.765 112.776C105.26 112.776 105.705 112.844 106.101 112.98C106.497 113.11 106.834 113.321 107.112 113.611C107.397 113.902 107.613 114.279 107.762 114.743C107.91 115.201 107.984 115.761 107.984 116.422V123H106.259V116.404C106.259 115.878 106.181 115.458 106.027 115.142C105.872 114.82 105.646 114.589 105.35 114.446C105.053 114.298 104.688 114.224 104.255 114.224C103.828 114.224 103.438 114.313 103.086 114.493C102.74 114.672 102.44 114.919 102.186 115.235C101.939 115.55 101.744 115.912 101.602 116.32C101.465 116.722 101.397 117.149 101.397 117.601ZM117.095 112.962H118.653V122.787C118.653 123.671 118.474 124.426 118.115 125.05C117.757 125.675 117.256 126.148 116.612 126.47C115.975 126.798 115.239 126.961 114.404 126.961C114.058 126.961 113.65 126.906 113.18 126.794C112.716 126.689 112.258 126.507 111.807 126.247C111.361 125.993 110.987 125.65 110.684 125.217L111.584 124.197C112.005 124.704 112.444 125.056 112.901 125.254C113.365 125.452 113.823 125.551 114.274 125.551C114.819 125.551 115.289 125.449 115.685 125.245C116.08 125.041 116.387 124.738 116.603 124.336C116.826 123.94 116.937 123.451 116.937 122.87V115.17L117.095 112.962ZM110.183 118.092V117.897C110.183 117.131 110.273 116.435 110.452 115.81C110.638 115.179 110.901 114.638 111.241 114.187C111.587 113.735 112.005 113.389 112.493 113.147C112.982 112.9 113.532 112.776 114.145 112.776C114.775 112.776 115.326 112.888 115.796 113.11C116.272 113.327 116.674 113.645 117.002 114.066C117.336 114.48 117.599 114.981 117.791 115.569C117.982 116.156 118.115 116.821 118.189 117.563V118.417C118.121 119.153 117.988 119.815 117.791 120.402C117.599 120.99 117.336 121.491 117.002 121.905C116.674 122.32 116.272 122.638 115.796 122.861C115.32 123.077 114.763 123.186 114.126 123.186C113.526 123.186 112.982 123.059 112.493 122.805C112.011 122.552 111.596 122.196 111.25 121.738C110.904 121.281 110.638 120.743 110.452 120.124C110.273 119.499 110.183 118.822 110.183 118.092ZM111.899 117.897V118.092C111.899 118.593 111.949 119.063 112.048 119.502C112.153 119.942 112.311 120.328 112.521 120.662C112.737 120.996 113.013 121.259 113.347 121.451C113.681 121.636 114.08 121.729 114.543 121.729C115.112 121.729 115.583 121.608 115.954 121.367C116.325 121.126 116.618 120.807 116.835 120.412C117.058 120.016 117.231 119.586 117.354 119.122V116.886C117.286 116.546 117.181 116.218 117.039 115.903C116.903 115.581 116.724 115.297 116.501 115.049C116.285 114.796 116.015 114.595 115.694 114.446C115.372 114.298 114.995 114.224 114.562 114.224C114.092 114.224 113.687 114.323 113.347 114.521C113.013 114.712 112.737 114.978 112.521 115.318C112.311 115.652 112.153 116.042 112.048 116.487C111.949 116.926 111.899 117.396 111.899 117.897ZM121.251 108.75H122.977V121.052L122.828 123H121.251V108.75ZM129.758 117.897V118.092C129.758 118.822 129.672 119.499 129.499 120.124C129.325 120.743 129.072 121.281 128.738 121.738C128.404 122.196 127.996 122.552 127.513 122.805C127.031 123.059 126.477 123.186 125.853 123.186C125.215 123.186 124.656 123.077 124.173 122.861C123.697 122.638 123.295 122.32 122.967 121.905C122.639 121.491 122.377 120.99 122.179 120.402C121.987 119.815 121.854 119.153 121.78 118.417V117.563C121.854 116.821 121.987 116.156 122.179 115.569C122.377 114.981 122.639 114.48 122.967 114.066C123.295 113.645 123.697 113.327 124.173 113.11C124.65 112.888 125.203 112.776 125.834 112.776C126.465 112.776 127.025 112.9 127.513 113.147C128.002 113.389 128.41 113.735 128.738 114.187C129.072 114.638 129.325 115.179 129.499 115.81C129.672 116.435 129.758 117.131 129.758 117.897ZM128.033 118.092V117.897C128.033 117.396 127.986 116.926 127.894 116.487C127.801 116.042 127.652 115.652 127.448 115.318C127.244 114.978 126.975 114.712 126.641 114.521C126.307 114.323 125.896 114.224 125.407 114.224C124.974 114.224 124.597 114.298 124.275 114.446C123.96 114.595 123.691 114.796 123.468 115.049C123.246 115.297 123.063 115.581 122.921 115.903C122.785 116.218 122.683 116.546 122.615 116.886V119.122C122.714 119.555 122.875 119.972 123.097 120.375C123.326 120.77 123.629 121.095 124.006 121.349C124.39 121.602 124.863 121.729 125.426 121.729C125.89 121.729 126.285 121.636 126.613 121.451C126.947 121.259 127.216 120.996 127.42 120.662C127.631 120.328 127.785 119.942 127.884 119.502C127.983 119.063 128.033 118.593 128.033 118.092ZM131.475 118.092V117.879C131.475 117.155 131.58 116.484 131.79 115.866C132 115.241 132.303 114.7 132.699 114.242C133.095 113.778 133.574 113.42 134.137 113.166C134.7 112.906 135.331 112.776 136.03 112.776C136.735 112.776 137.369 112.906 137.932 113.166C138.501 113.42 138.983 113.778 139.379 114.242C139.781 114.7 140.087 115.241 140.297 115.866C140.508 116.484 140.613 117.155 140.613 117.879V118.092C140.613 118.816 140.508 119.487 140.297 120.105C140.087 120.724 139.781 121.265 139.379 121.729C138.983 122.187 138.504 122.545 137.941 122.805C137.384 123.059 136.753 123.186 136.048 123.186C135.343 123.186 134.709 123.059 134.146 122.805C133.584 122.545 133.101 122.187 132.699 121.729C132.303 121.265 132 120.724 131.79 120.105C131.58 119.487 131.475 118.816 131.475 118.092ZM133.191 117.879V118.092C133.191 118.593 133.25 119.066 133.367 119.512C133.485 119.951 133.661 120.34 133.896 120.681C134.137 121.021 134.437 121.29 134.796 121.488C135.155 121.68 135.572 121.775 136.048 121.775C136.518 121.775 136.93 121.68 137.282 121.488C137.641 121.29 137.938 121.021 138.173 120.681C138.408 120.34 138.584 119.951 138.702 119.512C138.825 119.066 138.887 118.593 138.887 118.092V117.879C138.887 117.384 138.825 116.917 138.702 116.478C138.584 116.033 138.405 115.64 138.164 115.3C137.929 114.953 137.632 114.681 137.273 114.483C136.92 114.285 136.506 114.187 136.03 114.187C135.56 114.187 135.145 114.285 134.787 114.483C134.434 114.681 134.137 114.953 133.896 115.3C133.661 115.64 133.485 116.033 133.367 116.478C133.25 116.917 133.191 117.384 133.191 117.879ZM142.311 118.092V117.879C142.311 117.155 142.416 116.484 142.626 115.866C142.836 115.241 143.139 114.7 143.535 114.242C143.931 113.778 144.41 113.42 144.973 113.166C145.536 112.906 146.167 112.776 146.866 112.776C147.571 112.776 148.205 112.906 148.768 113.166C149.337 113.42 149.819 113.778 150.215 114.242C150.617 114.7 150.923 115.241 151.133 115.866C151.344 116.484 151.449 117.155 151.449 117.879V118.092C151.449 118.816 151.344 119.487 151.133 120.105C150.923 120.724 150.617 121.265 150.215 121.729C149.819 122.187 149.34 122.545 148.777 122.805C148.22 123.059 147.589 123.186 146.884 123.186C146.179 123.186 145.545 123.059 144.982 122.805C144.42 122.545 143.937 122.187 143.535 121.729C143.139 121.265 142.836 120.724 142.626 120.105C142.416 119.487 142.311 118.816 142.311 118.092ZM144.027 117.879V118.092C144.027 118.593 144.086 119.066 144.203 119.512C144.321 119.951 144.497 120.34 144.732 120.681C144.973 121.021 145.273 121.29 145.632 121.488C145.991 121.68 146.408 121.775 146.884 121.775C147.354 121.775 147.766 121.68 148.118 121.488C148.477 121.29 148.774 121.021 149.009 120.681C149.244 120.34 149.42 119.951 149.538 119.512C149.661 119.066 149.723 118.593 149.723 118.092V117.879C149.723 117.384 149.661 116.917 149.538 116.478C149.42 116.033 149.241 115.64 149 115.3C148.764 114.953 148.468 114.681 148.109 114.483C147.756 114.285 147.342 114.187 146.866 114.187C146.396 114.187 145.981 114.285 145.623 114.483C145.27 114.681 144.973 114.953 144.732 115.3C144.497 115.64 144.321 116.033 144.203 116.478C144.086 116.917 144.027 117.384 144.027 117.879ZM157.804 112.962V114.279H152.376V112.962H157.804ZM154.213 110.522H155.93V120.514C155.93 120.854 155.982 121.111 156.087 121.284C156.193 121.457 156.329 121.571 156.496 121.627C156.663 121.683 156.842 121.71 157.034 121.71C157.176 121.71 157.324 121.698 157.479 121.673C157.64 121.642 157.76 121.618 157.841 121.599L157.85 123C157.714 123.043 157.535 123.083 157.312 123.121C157.096 123.164 156.833 123.186 156.523 123.186C156.103 123.186 155.716 123.102 155.364 122.935C155.011 122.768 154.73 122.49 154.52 122.1C154.315 121.704 154.213 121.172 154.213 120.504V110.522Z" fill="#03B11D"/>
<defs>
<clipPath id="clip0_42_116">
<rect width="60" height="60" fill="white" transform="translate(60 34)"/>
</clipPath>
</defs>
</svg>
