<svg width="180" height="160" viewBox="0 0 180 160" fill="none" xmlns="http://www.w3.org/2000/svg">
<g clip-path="url(#clip0_42_160)">
<path d="M90 36C78.0312 36 70.5506 41.9844 67.5584 53.9532C72.0468 47.9688 77.2831 45.7247 83.2675 47.2208C86.6818 48.0743 89.1223 50.5516 91.8237 53.2933C96.2244 57.7602 101.317 62.9299 112.442 62.9299C124.41 62.9299 131.891 56.9455 134.883 44.9766C130.395 50.961 125.158 53.2052 119.174 51.7091C115.76 50.8556 113.319 48.3783 110.618 45.6365C106.217 41.1696 101.124 36 90 36ZM67.5584 62.9299C55.5896 62.9299 48.1091 68.9143 45.1169 80.8831C49.6052 74.8987 54.8416 72.6545 60.826 74.1507C64.2402 75.0041 66.6808 77.4815 69.3822 80.2232C73.7828 84.6901 78.8756 89.8597 90 89.8597C101.969 89.8597 109.449 83.8753 112.442 71.9065C107.953 77.8909 102.717 80.1351 96.7325 78.639C93.3182 77.7855 90.8777 75.3081 88.1763 72.5664C83.7756 68.0995 78.6828 62.9299 67.5584 62.9299Z" fill="url(#paint0_linear_42_160)"/>
</g>
<path d="M36.9399 112.648V129H34.8062V112.648H36.9399ZM42.1958 112.648V114.423H29.5615V112.648H42.1958ZM50.1919 126.922V120.667C50.1919 120.188 50.0946 119.772 49.8999 119.42C49.7127 119.061 49.4282 118.784 49.0464 118.589C48.6646 118.395 48.1929 118.297 47.6313 118.297C47.1073 118.297 46.6468 118.387 46.25 118.567C45.8607 118.747 45.5537 118.982 45.3291 119.274C45.112 119.566 45.0034 119.881 45.0034 120.218H42.9258C42.9258 119.784 43.0381 119.353 43.2627 118.926C43.4873 118.5 43.8092 118.114 44.2285 117.77C44.6553 117.418 45.1644 117.141 45.7559 116.938C46.3548 116.729 47.0212 116.624 47.7549 116.624C48.6383 116.624 49.417 116.774 50.0908 117.073C50.7721 117.373 51.3037 117.826 51.6855 118.432C52.0749 119.031 52.2695 119.784 52.2695 120.689V126.35C52.2695 126.754 52.3032 127.184 52.3706 127.641C52.4455 128.098 52.554 128.491 52.6963 128.82V129H50.5288C50.424 128.76 50.3416 128.442 50.2817 128.045C50.2218 127.641 50.1919 127.267 50.1919 126.922ZM50.5513 121.633L50.5737 123.093H48.4736C47.8822 123.093 47.3543 123.141 46.8901 123.239C46.4259 123.329 46.0366 123.467 45.7222 123.654C45.4077 123.841 45.1681 124.077 45.0034 124.362C44.8387 124.639 44.7563 124.965 44.7563 125.339C44.7563 125.721 44.8424 126.069 45.0146 126.383C45.1868 126.698 45.4451 126.949 45.7896 127.136C46.1414 127.315 46.5719 127.405 47.0811 127.405C47.7174 127.405 48.279 127.271 48.7656 127.001C49.2523 126.731 49.6379 126.402 49.9224 126.013C50.2144 125.623 50.3716 125.245 50.394 124.878L51.2812 125.878C51.2288 126.192 51.0866 126.541 50.8545 126.922C50.6224 127.304 50.3117 127.671 49.9224 128.023C49.5405 128.367 49.0838 128.656 48.5522 128.888C48.0282 129.112 47.4367 129.225 46.7778 129.225C45.9543 129.225 45.2318 129.064 44.6104 128.742C43.9964 128.42 43.5173 127.989 43.1729 127.45C42.8359 126.904 42.6675 126.293 42.6675 125.62C42.6675 124.968 42.7948 124.396 43.0493 123.901C43.3039 123.4 43.6707 122.984 44.1499 122.655C44.6291 122.318 45.2056 122.063 45.8794 121.891C46.5532 121.719 47.3057 121.633 48.1367 121.633H50.5513ZM57.7949 116.849V129H55.7061V116.849H57.7949ZM55.5488 113.625C55.5488 113.289 55.6499 113.004 55.8521 112.772C56.0617 112.54 56.3687 112.424 56.7729 112.424C57.1698 112.424 57.473 112.54 57.6826 112.772C57.8997 113.004 58.0083 113.289 58.0083 113.625C58.0083 113.947 57.8997 114.224 57.6826 114.457C57.473 114.681 57.1698 114.793 56.7729 114.793C56.3687 114.793 56.0617 114.681 55.8521 114.457C55.6499 114.224 55.5488 113.947 55.5488 113.625ZM63.3877 111.75V129H61.2988V111.75H63.3877ZM69.8003 126.844L72.9224 116.849H74.2925L74.0229 118.836L70.8447 129H69.5083L69.8003 126.844ZM67.7002 116.849L70.3618 126.956L70.5527 129H69.1489L65.6226 116.849H67.7002ZM77.2798 126.877L79.8179 116.849H81.8843L78.3579 129H76.9653L77.2798 126.877ZM74.5957 116.849L77.6504 126.675L77.9985 129H76.6733L73.4053 118.814L73.1357 116.849H74.5957ZM86.2754 116.849V129H84.1865V116.849H86.2754ZM84.0293 113.625C84.0293 113.289 84.1304 113.004 84.3325 112.772C84.5422 112.54 84.8491 112.424 85.2534 112.424C85.6502 112.424 85.9535 112.54 86.1631 112.772C86.3802 113.004 86.4888 113.289 86.4888 113.625C86.4888 113.947 86.3802 114.224 86.1631 114.457C85.9535 114.681 85.6502 114.793 85.2534 114.793C84.8491 114.793 84.5422 114.681 84.3325 114.457C84.1304 114.224 84.0293 113.947 84.0293 113.625ZM91.6885 119.443V129H89.6108V116.849H91.5762L91.6885 119.443ZM91.1943 122.464L90.3296 122.43C90.3371 121.599 90.4606 120.832 90.7002 120.128C90.9398 119.417 91.2767 118.799 91.7109 118.275C92.1452 117.751 92.6618 117.347 93.2607 117.062C93.8672 116.77 94.5373 116.624 95.271 116.624C95.87 116.624 96.409 116.706 96.8882 116.871C97.3674 117.028 97.7754 117.283 98.1123 117.635C98.4567 117.987 98.7188 118.443 98.8984 119.005C99.0781 119.559 99.168 120.236 99.168 121.038V129H97.0791V121.015C97.0791 120.379 96.9855 119.87 96.7983 119.488C96.6112 119.098 96.3379 118.818 95.9785 118.646C95.6191 118.466 95.1774 118.376 94.6533 118.376C94.1367 118.376 93.665 118.485 93.2383 118.702C92.819 118.919 92.4559 119.218 92.1489 119.6C91.8494 119.982 91.6136 120.42 91.4414 120.914C91.2767 121.401 91.1943 121.917 91.1943 122.464ZM109.983 126.642V111.75H112.072V129H110.163L109.983 126.642ZM101.807 123.059V122.823C101.807 121.895 101.919 121.053 102.144 120.296C102.376 119.533 102.702 118.878 103.121 118.331C103.548 117.785 104.053 117.365 104.637 117.073C105.229 116.774 105.888 116.624 106.614 116.624C107.377 116.624 108.044 116.759 108.613 117.028C109.189 117.29 109.676 117.676 110.073 118.185C110.477 118.687 110.795 119.293 111.027 120.004C111.259 120.716 111.42 121.521 111.51 122.419V123.452C111.428 124.343 111.267 125.144 111.027 125.855C110.795 126.567 110.477 127.173 110.073 127.675C109.676 128.176 109.189 128.562 108.613 128.832C108.036 129.094 107.362 129.225 106.591 129.225C105.88 129.225 105.229 129.071 104.637 128.764C104.053 128.457 103.548 128.027 103.121 127.473C102.702 126.919 102.376 126.267 102.144 125.519C101.919 124.762 101.807 123.943 101.807 123.059ZM103.896 122.823V123.059C103.896 123.666 103.956 124.235 104.076 124.766C104.203 125.298 104.398 125.766 104.66 126.17C104.922 126.574 105.255 126.892 105.659 127.125C106.063 127.349 106.546 127.461 107.108 127.461C107.797 127.461 108.362 127.315 108.804 127.023C109.253 126.731 109.612 126.346 109.882 125.867C110.151 125.388 110.361 124.867 110.511 124.306V121.599C110.421 121.187 110.29 120.791 110.118 120.409C109.953 120.019 109.736 119.675 109.466 119.375C109.204 119.069 108.879 118.825 108.489 118.646C108.107 118.466 107.654 118.376 107.13 118.376C106.561 118.376 106.071 118.496 105.659 118.735C105.255 118.967 104.922 119.289 104.66 119.701C104.398 120.105 104.203 120.577 104.076 121.116C103.956 121.648 103.896 122.217 103.896 122.823ZM120.169 127.518C120.663 127.518 121.12 127.417 121.539 127.214C121.958 127.012 122.303 126.735 122.572 126.383C122.842 126.024 122.995 125.616 123.033 125.159H125.009C124.972 125.878 124.729 126.548 124.279 127.169C123.838 127.783 123.257 128.281 122.539 128.663C121.82 129.037 121.03 129.225 120.169 129.225C119.256 129.225 118.458 129.064 117.777 128.742C117.103 128.42 116.542 127.978 116.092 127.417C115.651 126.855 115.317 126.211 115.093 125.485C114.876 124.751 114.767 123.976 114.767 123.16V122.688C114.767 121.872 114.876 121.101 115.093 120.375C115.317 119.641 115.651 118.994 116.092 118.432C116.542 117.871 117.103 117.429 117.777 117.107C118.458 116.785 119.256 116.624 120.169 116.624C121.12 116.624 121.951 116.819 122.662 117.208C123.373 117.59 123.931 118.114 124.335 118.78C124.747 119.439 124.972 120.188 125.009 121.026H123.033C122.995 120.525 122.853 120.072 122.606 119.667C122.366 119.263 122.037 118.941 121.618 118.702C121.206 118.455 120.723 118.331 120.169 118.331C119.533 118.331 118.997 118.458 118.563 118.713C118.136 118.96 117.796 119.297 117.541 119.724C117.294 120.143 117.114 120.611 117.002 121.127C116.897 121.637 116.845 122.157 116.845 122.688V123.16C116.845 123.692 116.897 124.216 117.002 124.732C117.107 125.249 117.283 125.717 117.53 126.136C117.784 126.556 118.125 126.892 118.552 127.147C118.986 127.394 119.525 127.518 120.169 127.518ZM134.42 125.777C134.42 125.477 134.353 125.2 134.218 124.946C134.091 124.684 133.825 124.448 133.421 124.238C133.024 124.021 132.425 123.834 131.624 123.677C130.95 123.535 130.34 123.366 129.793 123.171C129.254 122.977 128.794 122.741 128.412 122.464C128.038 122.187 127.75 121.861 127.547 121.487C127.345 121.112 127.244 120.674 127.244 120.173C127.244 119.694 127.349 119.241 127.559 118.814C127.776 118.387 128.079 118.009 128.468 117.68C128.865 117.35 129.34 117.092 129.895 116.905C130.449 116.718 131.066 116.624 131.748 116.624C132.721 116.624 133.552 116.796 134.241 117.141C134.93 117.485 135.457 117.945 135.824 118.522C136.191 119.091 136.375 119.724 136.375 120.42H134.297C134.297 120.083 134.196 119.757 133.994 119.443C133.799 119.121 133.511 118.855 133.129 118.646C132.755 118.436 132.294 118.331 131.748 118.331C131.171 118.331 130.703 118.421 130.344 118.601C129.992 118.773 129.734 118.994 129.569 119.263C129.412 119.533 129.333 119.817 129.333 120.117C129.333 120.341 129.37 120.543 129.445 120.723C129.528 120.895 129.67 121.056 129.872 121.206C130.074 121.348 130.359 121.483 130.726 121.61C131.092 121.738 131.56 121.865 132.129 121.992C133.125 122.217 133.945 122.486 134.589 122.801C135.233 123.115 135.712 123.501 136.026 123.958C136.341 124.414 136.498 124.968 136.498 125.62C136.498 126.151 136.386 126.638 136.161 127.08C135.944 127.521 135.626 127.903 135.207 128.225C134.795 128.54 134.301 128.787 133.724 128.966C133.155 129.139 132.515 129.225 131.804 129.225C130.733 129.225 129.827 129.034 129.086 128.652C128.345 128.27 127.783 127.776 127.401 127.169C127.02 126.563 126.829 125.923 126.829 125.249H128.917C128.947 125.818 129.112 126.271 129.412 126.608C129.711 126.937 130.078 127.173 130.512 127.315C130.946 127.45 131.377 127.518 131.804 127.518C132.373 127.518 132.848 127.443 133.23 127.293C133.619 127.143 133.915 126.937 134.117 126.675C134.319 126.413 134.42 126.114 134.42 125.777ZM146.302 125.777C146.302 125.477 146.235 125.2 146.1 124.946C145.973 124.684 145.707 124.448 145.303 124.238C144.906 124.021 144.307 123.834 143.506 123.677C142.832 123.535 142.222 123.366 141.675 123.171C141.136 122.977 140.676 122.741 140.294 122.464C139.92 122.187 139.631 121.861 139.429 121.487C139.227 121.112 139.126 120.674 139.126 120.173C139.126 119.694 139.231 119.241 139.44 118.814C139.658 118.387 139.961 118.009 140.35 117.68C140.747 117.35 141.222 117.092 141.776 116.905C142.33 116.718 142.948 116.624 143.629 116.624C144.603 116.624 145.434 116.796 146.123 117.141C146.811 117.485 147.339 117.945 147.706 118.522C148.073 119.091 148.256 119.724 148.256 120.42H146.179C146.179 120.083 146.078 119.757 145.875 119.443C145.681 119.121 145.393 118.855 145.011 118.646C144.636 118.436 144.176 118.331 143.629 118.331C143.053 118.331 142.585 118.421 142.226 118.601C141.874 118.773 141.615 118.994 141.451 119.263C141.293 119.533 141.215 119.817 141.215 120.117C141.215 120.341 141.252 120.543 141.327 120.723C141.41 120.895 141.552 121.056 141.754 121.206C141.956 121.348 142.241 121.483 142.607 121.61C142.974 121.738 143.442 121.865 144.011 121.992C145.007 122.217 145.827 122.486 146.471 122.801C147.115 123.115 147.594 123.501 147.908 123.958C148.223 124.414 148.38 124.968 148.38 125.62C148.38 126.151 148.268 126.638 148.043 127.08C147.826 127.521 147.508 127.903 147.088 128.225C146.677 128.54 146.182 128.787 145.606 128.966C145.037 129.139 144.397 129.225 143.686 129.225C142.615 129.225 141.709 129.034 140.968 128.652C140.227 128.27 139.665 127.776 139.283 127.169C138.901 126.563 138.71 125.923 138.71 125.249H140.799C140.829 125.818 140.994 126.271 141.293 126.608C141.593 126.937 141.96 127.173 142.394 127.315C142.828 127.45 143.259 127.518 143.686 127.518C144.255 127.518 144.73 127.443 145.112 127.293C145.501 127.143 145.797 126.937 145.999 126.675C146.201 126.413 146.302 126.114 146.302 125.777Z" fill="#2298BD"/>
<defs>
<linearGradient id="paint0_linear_42_160" x1="-204.254" y1="1759.51" x2="7548.53" y2="6229.63" gradientUnits="userSpaceOnUse">
<stop stop-color="#2298BD"/>
<stop offset="1" stop-color="#0ED7B5"/>
</linearGradient>
<clipPath id="clip0_42_160">
<rect width="89.7662" height="54" fill="white" transform="translate(45.1169 36)"/>
</clipPath>
</defs>
</svg>
